<svg xmlns="http://www.w3.org/2000/svg" viewBox="0 0 500 500"><g id="freepik--background-complete--inject-7"><path d="M50.12,227.93c.06.08.12.17.19.25a25.31,25.31,0,0,0,5.28,5,2.08,2.08,0,0,0,.29.19,22.62,22.62,0,0,0,6.38,3.11,4.14,4.14,0,0,0,.43.13l.6.17A25.63,25.63,0,0,0,66.15,243a2,2,0,0,0,.2.31,27.16,27.16,0,0,0,3.86,4.74,14.75,14.75,0,0,0,1.27,1.12,1,1,0,0,0,.22.19,18,18,0,0,0,6.94,3.44l.25.06a20.59,20.59,0,0,0,6.68.46c.35,0,.69-.08,1-.12l.27,0a23.71,23.71,0,0,0,7.34-2.26l.29-.14h0a23.28,23.28,0,0,0,6.1-4.48l.29-.29a25,25,0,0,0,4.23-6c.09-.17.16-.33.25-.49a26.52,26.52,0,0,0,1.41-3.67,19.73,19.73,0,0,0,3.77.91l.61.09h0a22.33,22.33,0,0,0,8.26-.62l.38-.11a21,21,0,0,0,7.3-3.72l.21-.18a18.62,18.62,0,0,0,5-6.29v0l.09-.2a17.82,17.82,0,0,0,1.72-7.8v-.25a20.2,20.2,0,0,0-1.83-7.92,2.71,2.71,0,0,0-.13-.3,23.53,23.53,0,0,0-4.71-6.68c-.1-.12-.22-.23-.32-.33a23.77,23.77,0,0,0-4.47-3.4,19,19,0,0,0,.75-2.12c0-.15.09-.32.14-.48a22.39,22.39,0,0,0,.66-7.17,1.82,1.82,0,0,0,0-.4,25,25,0,0,0-1.64-7.22,1.57,1.57,0,0,0-.12-.3,23.65,23.65,0,0,0-3.81-6.51l-.18-.21c-.31-.37-.64-.73-1-1.08a15.62,15.62,0,0,0-5-3.48,2.06,2.06,0,0,0-.26-.12,16.42,16.42,0,0,0-7.63-1.07c-.13,0-.25,0-.37,0a25.43,25.43,0,0,0-7.55,2.1l-.46.22a32.64,32.64,0,0,0-4.73,2.73c-.45-.45-.93-.88-1.41-1.29l-.44-.35h0a22.41,22.41,0,0,0-6.32-3.55l-.4-.14a22.8,22.8,0,0,0-7.3-1.29h-.33a20.67,20.67,0,0,0-7.32,1.35l-.28.1a19.59,19.59,0,0,0-4.33,2.4,16.27,16.27,0,0,0-1.93,1.63c-.08.06-.14.13-.21.19a17.49,17.49,0,0,0-4,6.32c0,.11-.07.21-.11.33a20.81,20.81,0,0,0-1.11,7.55c0,.16,0,.32,0,.47a27.9,27.9,0,0,0,1.33,7.25c.07.21.13.41.2.61.28.83.6,1.66,1,2.45a25.9,25.9,0,0,0-4.05,2.33l-.49.35a24.73,24.73,0,0,0-5.41,5.54c-.08.12-.17.24-.24.36s-.31.46-.46.69a14.83,14.83,0,0,0-2.22,6.41l0,.31a18,18,0,0,0,1,7.28c0,.1.07.19.09.28s.11.29.16.43A23.33,23.33,0,0,0,50.12,227.93Z" style="fill:#ebebeb"></path><path d="M87.41,206.13c.06.11.13.22.2.33l0,0a.18.18,0,0,0,.26-.12h0a.13.13,0,0,0,0-.06c-.07-.14-.13-.29-.21-.44-1.66-3.62-3.67-7.12-5.54-10.65-2-3.74-4-7.5-5.94-11.24-2.73-5.13-5.51-10.24-8.27-15.36l-.28.1c2.64,5.11,5.27,10.22,8,15.3,2,3.76,4,7.5,6,11.25S85.28,202.62,87.41,206.13Z" style="fill:#fff"></path><path d="M87.86,206.33s0,0,0,0h0a.16.16,0,0,0,.26-.07v-.07l-.12-.44c-1-3.87-2.39-7.68-3.62-11.48q-1.93-6-3.9-12.11c-1.61-5-3.28-10-5-14.95h-.33c1.55,5,3.09,9.93,4.68,14.88,1.3,4,2.61,8.07,3.91,12.12,1.25,3.85,2.37,7.8,3.83,11.57,0,0,0,0,0,0S87.8,206.18,87.86,206.33Z" style="fill:#fff"></path><path d="M88.14,206.25a.16.16,0,0,0,0,.07c.06.08.23.07.26,0s0,0,0-.06,0-.35,0-.53c-.33-4-1-7.92-1.56-11.87-.58-4.19-1.15-8.4-1.75-12.6s-1.2-8.36-1.82-12.53l-.4-.14q.8,6.25,1.64,12.51c.59,4.21,1.17,8.4,1.76,12.61.55,4,1,8.14,1.77,12.13C88.08,206,88.12,206.1,88.14,206.25Z" style="fill:#fff"></path><path d="M88.44,206.29c.07.1.23.12.28,0h0s0,0,0-.05,0-.29.05-.44c.37-4,.39-8,.53-12,.16-4.24.33-8.47.47-12.72.11-2.81.19-5.62.27-8.44l-.44-.35c-.14,2.85-.27,5.69-.37,8.54q-.24,6.36-.47,12.71c-.15,4.05-.44,8.15-.36,12.19,0,.18,0,.35,0,.52A.64.64,0,0,0,88.44,206.29Z" style="fill:#fff"></path><path d="M88.72,206.31c0,.11.21.15.27.06s0,0,0,0c.06-.18.1-.36.15-.55,1-3.82,1.76-7.78,2.58-11.64.9-4.15,1.8-8.29,2.68-12.45.77-3.58,1.5-7.16,2.23-10.74l-.46.22q-1.15,5.09-2.26,10.17c-.9,4.15-1.78,8.3-2.67,12.44-.85,4-1.87,8-2.48,12,0,.14-.06.28-.08.42a.19.19,0,0,0,0,.07Z" style="fill:#fff"></path><path d="M89,206.37a.18.18,0,0,0,.25.13s0,0,0,0,0,0,.05-.05c.09-.18.17-.36.25-.55,1.69-3.57,3.06-7.31,4.56-11,1.6-3.93,3.2-7.85,4.78-11.79,1.94-4.75,3.81-9.53,5.7-14.3-.13,0-.25,0-.37,0-1.93,4.61-3.86,9.22-5.75,13.85-1.6,3.92-3.19,7.86-4.79,11.78-1.51,3.75-3.19,7.48-4.5,11.3-.07.17-.12.35-.18.52A.08.08,0,0,0,89,206.37Z" style="fill:#fff"></path><path d="M89.24,206.49s0,0,0,0a.17.17,0,0,0,.23.14l0,0c.09-.14.19-.27.28-.4,2.31-3.25,4.33-6.75,6.46-10.12q3.38-5.4,6.77-10.78c3.17-5.08,6.3-10.2,9.44-15.3a2.06,2.06,0,0,0-.26-.12c-3.18,5-6.38,9.93-9.52,14.92-2.27,3.59-4.51,7.19-6.77,10.78-2.13,3.41-4.42,6.78-6.38,10.3l-.29.53A.2.2,0,0,0,89.24,206.49Z" style="fill:#fff"></path><path d="M89.67,206.84a.05.05,0,0,0,0,0l.36-.36c2.83-2.8,5.43-5.89,8.1-8.84,2.85-3.15,5.7-6.28,8.54-9.44,4-4.43,8-8.93,11.93-13.39l-.18-.21c-4,4.34-8,8.68-12,13.06q-4.27,4.73-8.52,9.44c-2.73,3-5.6,6-8.15,9.13h0c-.1.12-.21.24-.3.36a.13.13,0,0,0,0,.07A.18.18,0,0,0,89.67,206.84Z" style="fill:#fff"></path><path d="M89.82,207.07h0l.06,0,.45-.31c3.26-2.26,6.35-4.84,9.48-7.28,3.35-2.6,6.7-5.19,10-7.8,4.27-3.33,8.49-6.7,12.72-10.06a1.57,1.57,0,0,0-.12-.3c-4.25,3.25-8.52,6.49-12.74,9.77-3.36,2.6-6.7,5.21-10,7.82s-6.53,4.9-9.59,7.57l-.38.33a.16.16,0,0,0,0,.06C89.62,206.93,89.71,207.06,89.82,207.07Z" style="fill:#fff"></path><path d="M90,207.31H90l.46-.22c3.62-1.67,7.11-3.67,10.63-5.53,3.75-2,7.5-4,11.24-5.94,4-2.11,7.93-4.26,11.89-6.4a1.82,1.82,0,0,0,0-.4c-4,2.06-8,4.11-11.91,6.19-3.76,2-7.5,4-11.25,6-3.56,1.89-7.25,3.68-10.72,5.77l-.46.27,0,.06h0A.18.18,0,0,0,90,207.31Z" style="fill:#fff"></path><path d="M90,207.57s0,0,.06,0l.44-.12c3.87-1,7.68-2.39,11.48-3.6l12.11-3.91q4.66-1.51,9.32-3.08c0-.15.09-.32.14-.48q-4.71,1.45-9.4,3-6.06,1.95-12.11,3.92c-3.86,1.24-7.81,2.37-11.59,3.82a4.52,4.52,0,0,0-.47.18.06.06,0,0,0-.05.05h0A.17.17,0,0,0,90,207.57Z" style="fill:#fff"></path><path d="M90.05,207.84a.07.07,0,0,0,.06,0l.53-.05c4-.32,7.92-1,11.86-1.56l12.61-1.73q6.19-.87,12.37-1.81c-.1-.12-.22-.23-.32-.33-4,.5-7.93,1-11.89,1.56-4.21.57-8.4,1.16-12.61,1.74-4,.55-8.13,1-12.13,1.77l-.44.09a.07.07,0,0,0-.06,0C89.93,207.64,90,207.82,90.05,207.84Z" style="fill:#fff"></path><path d="M90,208.12h0l.07,0,.54,0c4,.36,8,.37,11.94.52l12.71.47c5.68.21,11.35.34,17,.5a2.71,2.71,0,0,0-.13-.3c-5.55-.26-11.1-.54-16.64-.75l-12.71-.46c-4-.14-8.15-.44-12.2-.37h-.51a.12.12,0,0,0-.08,0A.18.18,0,0,0,90,208.12Z" style="fill:#fff"></path><path d="M90,208.39a.09.09,0,0,0,0,0l.45.13c3.86,1.06,7.83,1.77,11.74,2.61l12.44,2.66c6.49,1.39,13,2.7,19.51,4v-.25c-6.38-1.42-12.75-2.89-19.15-4.27l-12.44-2.67c-3.93-.85-7.89-1.84-11.87-2.47h0l-.53-.09a.08.08,0,0,0-.08,0h0A.17.17,0,0,0,90,208.39Z" style="fill:#fff"></path><path d="M89.86,208.64s0,0,0,0l.48.23c3.6,1.69,7.37,3.08,11.05,4.58l11.79,4.79c6.36,2.58,12.75,5.06,19.12,7.6v0l.09-.2c-6.27-2.59-12.52-5.24-18.79-7.8l-11.79-4.79c-3.77-1.52-7.53-3.22-11.38-4.53h0l-.43-.16H90A.16.16,0,0,0,89.86,208.64Z" style="fill:#fff"></path><path d="M89.7,208.87h0a.1.1,0,0,0,0,0l.43.31c3.25,2.29,6.72,4.31,10.09,6.43L111,222.42c5.35,3.35,10.73,6.63,16.1,9.93l.21-.18c-5.26-3.36-10.51-6.76-15.81-10.09-3.58-2.26-7.18-4.51-10.77-6.76s-6.83-4.46-10.38-6.41l-.45-.25-.07,0A.17.17,0,0,0,89.7,208.87Z" style="fill:#fff"></path><path d="M89.51,209.07s0,0,0,.06l.35.35c2.8,2.83,5.89,5.43,8.84,8.1l9.44,8.54c3.74,3.37,7.52,6.71,11.28,10.06l.38-.11c-3.69-3.4-7.39-6.83-11.12-10.2l-9.44-8.53c-3-2.72-5.94-5.57-9.1-8.11-.12-.12-.27-.23-.4-.34l-.07,0h0A.17.17,0,0,0,89.51,209.07Z" style="fill:#fff"></path><path d="M89.3,209.29l.31.44c2.27,3.27,4.84,6.35,7.28,9.48,2.6,3.35,5.2,6.71,7.81,10q2.91,3.75,5.87,7.45l.61.09q-2.93-3.86-5.9-7.69l-7.81-10c-2.5-3.2-4.91-6.54-7.58-9.59l-.32-.37s0,0-.06,0a.18.18,0,0,0-.24.14h0A.25.25,0,0,0,89.3,209.29Z" style="fill:#fff"></path><path d="M105.14,240c.09-.17.16-.33.25-.49-1.35-2.59-2.69-5.19-4-7.77l-6-11.24c-1.9-3.57-3.69-7.26-5.78-10.73l-.27-.45a.17.17,0,0,0-.06-.06h0a.19.19,0,0,0-.24.13.08.08,0,0,0,0,.07l.21.47c1.67,3.61,3.68,7.1,5.53,10.63,2,3.74,4,7.5,5.95,11.24Q102.92,235.86,105.14,240Z" style="fill:#fff"></path><path d="M100.62,246.28l.29-.29c-1.29-4.14-2.58-8.29-3.91-12.42s-2.6-8.07-3.91-12.1c-1.25-3.86-2.37-7.8-3.83-11.59a3.94,3.94,0,0,0-.18-.48s0-.05,0-.06a.17.17,0,0,0-.26.08v.06c0,.15.08.31.13.45v0c1,3.85,2.39,7.64,3.59,11.43q2,6.06,3.92,12.11C97.78,237.78,99.21,242,100.62,246.28Z" style="fill:#fff"></path><path d="M94.22,250.91l.29-.14h0c-.7-5.36-1.38-10.73-2.11-16.09-.57-4.2-1.17-8.41-1.74-12.6-.57-4-1-8.14-1.77-12.14,0-.14-.07-.3-.09-.44a.16.16,0,0,0,0-.07c-.07-.08-.24-.08-.27,0h0a.06.06,0,0,0,0,.06c0,.18,0,.35,0,.52.33,4,1,7.94,1.56,11.87q.85,6.3,1.74,12.61C92.6,240,93.42,245.45,94.22,250.91Z" style="fill:#fff"></path><path d="M86.61,253.21l.27,0c.27-6.08.59-12.16.82-18.23q.22-6.36.46-12.71c.15-4,.44-8.14.37-12.2,0-.17,0-.34,0-.51a.2.2,0,0,0,0-.07h0a.2.2,0,0,0-.28,0,.19.19,0,0,0,0,.07l-.06.55c-.36,4-.37,8-.52,11.93q-.23,6.36-.47,12.72C86.94,240.86,86.79,247,86.61,253.21Z" style="fill:#fff"></path><path d="M78.64,252.81l.25.06c1.37-6.15,2.78-12.31,4.12-18.47L85.68,222c.84-3.93,1.83-7.88,2.46-11.87a0,0,0,0,0,0,0,5.07,5.07,0,0,0,.09-.54.08.08,0,0,0,0-.08.17.17,0,0,0-.27-.06.16.16,0,0,0,0,.06c0,.16-.1.34-.14.51a.1.1,0,0,0,0,0c-1,3.82-1.75,7.77-2.58,11.65l-2.67,12.44C81.18,240.29,79.93,246.56,78.64,252.81Z" style="fill:#fff"></path><path d="M71.48,249.18a1,1,0,0,0,.22.19C74,243.93,76.26,238.5,78.48,233q2.4-5.88,4.79-11.78c1.51-3.75,3.2-7.48,4.5-11.3.07-.17.12-.35.18-.52a.06.06,0,0,0,0-.08.17.17,0,0,0-.25-.11.07.07,0,0,0,0,.05l-.23.47c-1.69,3.6-3.08,7.38-4.57,11.06-1.6,3.93-3.21,7.85-4.8,11.78C75.83,238.13,73.66,243.65,71.48,249.18Z" style="fill:#fff"></path><path d="M66.15,243a2,2,0,0,0,.2.31q4-6.18,7.92-12.39,3.38-5.38,6.76-10.78c2.14-3.43,4.45-6.83,6.4-10.38a3.3,3.3,0,0,0,.26-.45s0,0,0-.07a.17.17,0,0,0-.22-.16h0l0,0-.3.44c-2.29,3.25-4.32,6.72-6.44,10.09l-6.76,10.77Q70,236.7,66.15,243Z" style="fill:#fff"></path><path d="M62.26,236.48a4.14,4.14,0,0,0,.43.13c2.6-2.82,5.21-5.65,7.79-8.5L79,218.67c2.72-3,5.57-5.95,8.12-9.1l.33-.41a.11.11,0,0,0,0-.06h0c0-.11-.11-.23-.21-.19a.1.1,0,0,0,0,0l-.27.26c-2.86,2.82-5.49,5.94-8.19,8.93-2.84,3.14-5.7,6.28-8.53,9.43C67.56,230.52,64.91,233.51,62.26,236.48Z" style="fill:#fff"></path><path d="M55.59,233.18a2.08,2.08,0,0,0,.29.19c3.79-2.89,7.59-5.77,11.35-8.7q5-3.88,10-7.81c3.22-2.52,6.59-5,9.67-7.66a3.11,3.11,0,0,0,.28-.23.12.12,0,0,0,0-.07.16.16,0,0,0-.15-.22l-.06,0-.33.23c-3.31,2.28-6.43,4.89-9.6,7.35-3.35,2.6-6.71,5.2-10,7.82C63.23,227.1,59.41,230.14,55.59,233.18Z" style="fill:#fff"></path><path d="M50.12,227.93c.06.08.12.17.19.25,4.79-2.48,9.58-4.94,14.33-7.45l11.24-5.95c3.62-1.91,7.35-3.72,10.85-5.85.12-.06.22-.13.34-.2l.05,0a.18.18,0,0,0-.12-.25h-.07l-.45.21c-3.62,1.67-7.11,3.67-10.64,5.54l-11.25,5.94C59.76,222.7,54.94,225.33,50.12,227.93Z" style="fill:#fff"></path><path d="M46.6,221.48c5.39-1.69,10.79-3.35,16.17-5.08l12.1-3.91c3.86-1.24,7.82-2.37,11.61-3.84l.46-.17s0,0,0,0h0a.17.17,0,0,0-.08-.27h-.06l-.45.12c-3.87,1-7.67,2.38-11.47,3.61l-12.12,3.9c-5.45,1.77-10.88,3.59-16.31,5.4C46.54,221.3,46.58,221.39,46.6,221.48Z" style="fill:#fff"></path><path d="M45.52,213.92c5.38-.7,10.78-1.37,16.16-2.11l12.59-1.75c4-.57,8.14-1,12.14-1.77l.45-.09s0,0,.06,0,.08-.24,0-.26h0a.07.07,0,0,0-.06,0l-.52,0c-4,.33-7.93,1-11.87,1.57-4.2.58-8.4,1.15-12.6,1.74-5.44.76-10.86,1.58-16.29,2.38Z" style="fill:#fff"></path><path d="M48.23,206.51c4.39.21,8.78.42,13.17.58s8.47.31,12.72.47c4,.15,8.13.45,12.19.36.17,0,.34,0,.51,0l.07,0h0a.18.18,0,0,0,0-.28h0a.11.11,0,0,0-.06,0l-.44,0c-4-.38-8-.4-12-.53l-12.72-.48q-6.6-.23-13.19-.4C48.39,206.27,48.3,206.39,48.23,206.51Z" style="fill:#fff"></path><path d="M53.88,200.61c2.69.62,5.38,1.21,8.06,1.79,4.15.9,8.3,1.78,12.45,2.67,4,.85,8,1.87,12,2.49l.43.07a.09.09,0,0,0,.07,0h0a.18.18,0,0,0,.06-.27l0,0-.54-.15c-3.82-1-7.78-1.76-11.66-2.59l-12.44-2.67q-3.94-.84-7.92-1.65Z" style="fill:#fff"></path><path d="M57.47,195.48c1.94.81,3.89,1.61,5.83,2.4l11.78,4.78c3.75,1.53,7.48,3.2,11.31,4.51l.52.19H87a.18.18,0,0,0,.12-.25s0,0,0,0,0,0,0,0l-.55-.25c-3.57-1.68-7.33-3.06-11-4.55l-11.78-4.79-6.46-2.59C57.34,195.08,57.4,195.28,57.47,195.48Z" style="fill:#fff"></path><path d="M55.94,187.62q4.74,3,9.47,6l10.78,6.76c3.41,2.14,6.78,4.42,10.31,6.38l.52.29h.07s0,0,0,0a.17.17,0,0,0,.15-.23l0-.05c-.13-.08-.26-.19-.4-.28-3.26-2.31-6.74-4.34-10.12-6.45l-10.78-6.78q-5-3.09-10-6.16C55.93,187.31,55.94,187.47,55.94,187.62Z" style="fill:#fff"></path><path d="M57,179.6c3.72,3.43,7.44,6.87,11.2,10.27q4.7,4.27,9.44,8.53c3,2.73,6,5.6,9.13,8.14.12.1.24.21.37.3a.11.11,0,0,0,.07,0c.11,0,.24-.1.19-.2h0l0,0-.27-.26c-2.82-2.88-5.93-5.5-8.92-8.2-3.15-2.85-6.28-5.7-9.44-8.54-3.86-3.47-7.75-6.91-11.63-10.35C57.11,179.38,57.08,179.48,57,179.6Z" style="fill:#fff"></path><path d="M61.19,173c3.49,4.56,7,9.14,10.48,13.68l7.81,10c2.52,3.23,5,6.6,7.66,9.69l.24.28a.06.06,0,0,0,.06,0h0a.16.16,0,0,0,.22-.16.08.08,0,0,0,0,0,3.88,3.88,0,0,0-.23-.33c-2.29-3.31-4.88-6.44-7.35-9.61-2.61-3.34-5.2-6.7-7.81-10-3.59-4.6-7.23-9.15-10.85-13.72C61.32,172.82,61.26,172.89,61.19,173Z" style="fill:#fff"></path><path d="M74.43,217.52c2.6,3.46,5.4,6.22,9.76,7.16a18.5,18.5,0,0,0,12.26-2c7.91-4.13,10.68-12.9,7.91-21-1.3-3.79-4.94-8.25-8.73-9.87-12.39-5.32-22.84,4.43-24.15,12.66A17.85,17.85,0,0,0,74.43,217.52Z" style="fill:#fff"></path><path d="M90,200a7.6,7.6,0,0,0-5.54.61,8.53,8.53,0,0,0-3.54,4.47,7.75,7.75,0,0,0,3.83,9.57,8.35,8.35,0,0,0,6,.63A8.09,8.09,0,0,0,95,203.47,8.21,8.21,0,0,0,90,200Z" style="fill:#ebebeb"></path><path d="M365.08,60.68a3.31,3.31,0,0,0-.15.33,28,28,0,0,0-2.4,7.8,2.44,2.44,0,0,0-.06.39,25.73,25.73,0,0,0,.06,8c0,.17.05.34.08.49s.09.47.14.7a28.06,28.06,0,0,0-4.85,6,3.35,3.35,0,0,0-.21.36A29.89,29.89,0,0,0,354.85,91a13.56,13.56,0,0,0-.5,1.84,1,1,0,0,0-.08.31,20.3,20.3,0,0,0,0,8.71,2.3,2.3,0,0,0,.06.28,23,23,0,0,0,2.88,7c.21.34.42.66.64,1l.18.25a26.68,26.68,0,0,0,5.94,6.26,1.93,1.93,0,0,0,.28.22h0a26.78,26.78,0,0,0,7.56,3.91l.43.14a28.06,28.06,0,0,0,8.19,1.24h.61a29.88,29.88,0,0,0,4.4-.41,22.77,22.77,0,0,0,1,4.25l.21.66h0a25,25,0,0,0,4.75,8l.29.33a24,24,0,0,0,7.39,5.49l.29.12a20.78,20.78,0,0,0,8.83,1.89s0,0,0,0a1.07,1.07,0,0,0,.25,0,19.81,19.81,0,0,0,8.71-2.16l.25-.13a22.53,22.53,0,0,0,7.05-5.8,1.68,1.68,0,0,0,.24-.29,26.39,26.39,0,0,0,4.38-8.06c.06-.17.12-.34.17-.5a27.21,27.21,0,0,0,1.19-6.19,21.3,21.3,0,0,0,2.5-.3l.55-.1a24.76,24.76,0,0,0,7.55-2.92,1.36,1.36,0,0,0,.39-.22,28.38,28.38,0,0,0,6.46-5.25,2.1,2.1,0,0,0,.24-.27,26.81,26.81,0,0,0,4.65-7.09l.12-.28c.22-.5.42-1,.6-1.52a17.74,17.74,0,0,0,1-6.8c0-.1,0-.22,0-.32A18.41,18.41,0,0,0,451.76,86c-.07-.12-.14-.24-.22-.35a28.23,28.23,0,0,0-5.88-6.55l-.45-.36a36.87,36.87,0,0,0-5.11-3.4,21,21,0,0,0,.59-2.06,6.21,6.21,0,0,0,.14-.62h0a25.62,25.62,0,0,0,.42-8.14L441.2,64a25.76,25.76,0,0,0-2.35-8l-.17-.33a23,23,0,0,0-5-6.7,2.55,2.55,0,0,0-.24-.23,21.61,21.61,0,0,0-4.57-3.16,19.61,19.61,0,0,0-2.61-1.13,1.82,1.82,0,0,0-.3-.11,19.31,19.31,0,0,0-8.37-.91,2.6,2.6,0,0,0-.39.05A23.67,23.67,0,0,0,409,46.17l-.47.26a31.65,31.65,0,0,0-6.63,5l-.51.5c-.69.7-1.37,1.44-2,2.19a28.59,28.59,0,0,0-4.36-2.92l-.6-.31a27.91,27.91,0,0,0-8.28-2.69l-.48-.06c-.3-.05-.62-.08-.92-.11a16.62,16.62,0,0,0-7.56,1l-.33.13A20.18,20.18,0,0,0,370,53.7l-.22.23-.36.37A26.3,26.3,0,0,0,365.08,60.68Z" style="fill:#ebebeb"></path><path d="M405.64,87.34c-.09.12-.16.24-.24.37a.12.12,0,0,0,0,.07.2.2,0,0,0,.25.2h0l.06,0,.34-.43c2.81-3.48,5.33-7.25,8-10.89q4.18-5.79,8.35-11.6c3.8-5.3,7.56-10.65,11.33-16a2.55,2.55,0,0,0-.24-.23Q427.67,56.61,422,64.43c-2.8,3.87-5.57,7.74-8.35,11.61C411,79.76,408.1,83.44,405.64,87.34Z" style="fill:#fff"></path><path d="M405.66,87.9a.09.09,0,0,0,0,.07h0a.18.18,0,0,0,.2.22.09.09,0,0,0,.06,0,4.32,4.32,0,0,0,.39-.34c3.39-2.94,6.54-6.24,9.75-9.36,3.41-3.33,6.84-6.64,10.25-10q6.32-6.18,12.57-12.44l-.17-.33c-4.23,4-8.45,8.06-12.65,12.14l-10.24,10c-3.25,3.18-6.67,6.28-9.74,9.63,0,0,0,0,0,0S405.78,87.76,405.66,87.9Z" style="fill:#fff"></path><path d="M405.88,88.14a.1.1,0,0,0-.05.06c-.05.11,0,.28.16.26s.05,0,.07,0l.51-.31c3.83-2.31,7.46-5,11.17-7.5,3.93-2.68,7.88-5.35,11.81-8s7.81-5.39,11.71-8.1L441.2,64c-3.93,2.62-7.87,5.24-11.78,7.9L417.61,80c-3.78,2.57-7.7,5.05-11.33,7.84Z" style="fill:#fff"></path><path d="M406,88.46a.19.19,0,0,0,.12.29h0s0,0,.06,0l.47-.18C410.85,87,414.93,85,419,83.09c4.35-2,8.69-3.9,13-5.87q4.32-1.95,8.62-4a6.21,6.21,0,0,0,.14-.62q-4.4,1.93-8.78,3.89l-13,5.88c-4.15,1.87-8.42,3.62-12.45,5.72-.18.08-.35.17-.51.26A.22.22,0,0,0,406,88.46Z" style="fill:#fff"></path><path d="M406.11,88.75c-.09.1-.05.29.07.3h.06l.63-.12c4.36-.86,8.7-2.12,13-3.22q6.93-1.74,13.86-3.52c4-1,7.95-2.06,11.92-3.11l-.45-.36q-5.7,1.38-11.36,2.81L420,85.06c-4.43,1.14-9,2.11-13.34,3.5l-.47.14-.06,0Z" style="fill:#fff"></path><path d="M406.18,89.05a.2.2,0,0,0,0,.32s0,0,0,0,0,0,.07,0c.22,0,.45,0,.68,0,4.44-.09,8.89-.57,13.33-.9q7.13-.52,14.25-1.07c5.75-.42,11.5-.93,17.24-1.41-.07-.12-.14-.24-.22-.35-5.6.36-11.2.71-16.8,1.12l-14.25,1.07c-4.53.34-9.12.52-13.62,1.11-.21,0-.42,0-.62.07Z" style="fill:#fff"></path><path d="M406.19,89.36s0,0,0,0a.18.18,0,0,0,0,.3s0,0,.06,0l.54.08c4.43.7,8.95,1,13.41,1.45l14.23,1.43c6.7.67,13.41,1.25,20.12,1.87,0-.1,0-.22,0-.32-6.59-.72-13.18-1.46-19.78-2.14-4.74-.49-9.48-.95-14.22-1.43-4.51-.44-9-1.06-13.56-1.27l-.67,0Z" style="fill:#fff"></path><path d="M406.06,90a.07.07,0,0,0,.05,0l.53.18c4.24,1.45,8.64,2.53,12.95,3.74q6.89,1.95,13.76,3.88c6.47,1.82,13,3.56,19.44,5.32l.12-.28c-6.36-1.87-12.74-3.75-19.14-5.56L420,93.42c-4.4-1.24-8.8-2.65-13.26-3.64h0l-.52-.12a.11.11,0,0,0-.08,0A.18.18,0,0,0,406.06,90Z" style="fill:#fff"></path><path d="M405.89,90.23h0s0,0,.06.05c.18.1.35.2.54.29,3.9,2.16,8,4,12.05,5.92l12.87,6.21c5.48,2.63,11,5.2,16.48,7.78a2.1,2.1,0,0,0,.24-.27c-5.39-2.66-10.78-5.34-16.2-8l-12.88-6.21c-4.11-2-8.19-4.13-12.42-5.87-.16-.08-.34-.15-.51-.22a.16.16,0,0,0-.07,0A.2.2,0,0,0,405.89,90.23Z" style="fill:#fff"></path><path d="M405.72,90.49h0l0,.06.45.35c3.48,2.81,7.25,5.33,10.87,7.95q5.81,4.17,11.6,8.34c4.11,3,8.24,5.86,12.37,8.77a1.36,1.36,0,0,0,.39-.22c-4.05-3-8.1-5.95-12.17-8.89-3.87-2.8-7.74-5.57-11.61-8.35C414,95.86,410.33,93,406.5,90.58l-.51-.32a.1.1,0,0,0-.09,0h0A.21.21,0,0,0,405.72,90.49Z" style="fill:#fff"></path><path d="M405.49,90.69a.09.09,0,0,0,0,.06,4.4,4.4,0,0,0,.35.39c2.94,3.39,6.23,6.54,9.35,9.76q5,5.11,10,10.24c2.56,2.62,5.15,5.23,7.74,7.84l.55-.1q-3.81-4-7.66-8-5-5.11-10-10.23c-3.18-3.26-6.29-6.67-9.64-9.76l-.41-.38a.13.13,0,0,0-.08,0h0A.19.19,0,0,0,405.49,90.69Z" style="fill:#fff"></path><path d="M405.24,90.85a.08.08,0,0,0,0,.07c.1.18.2.34.31.51,2.3,3.83,5,7.47,7.48,11.16,2.69,4,5.36,7.89,8,11.83s5.32,7.71,8,11.55c.06-.17.12-.34.17-.5-2.49-3.73-5-7.47-7.5-11.18q-4-5.92-8.06-11.82c-2.56-3.78-5-7.7-7.83-11.33-.1-.14-.21-.26-.31-.4a.12.12,0,0,0-.07,0C405.37,90.64,405.21,90.74,405.24,90.85Z" style="fill:#fff"></path><path d="M404.94,91h0a.06.06,0,0,0,0,.07c.07.2.15.38.22.57,1.61,4.16,3.6,8.21,5.43,12.28q2.94,6.51,5.88,13c2.62,5.82,5.31,11.59,8,17.39a1.68,1.68,0,0,0,.24-.29c-2.51-5.71-5-11.43-7.56-17.12l-5.88-13c-1.87-4.15-3.62-8.42-5.71-12.46q-.13-.27-.27-.51l-.05-.07A.21.21,0,0,0,404.94,91Z" style="fill:#fff"></path><path d="M404.64,91a.15.15,0,0,0,0,.07c0,.17.07.35.1.52.86,4.41,2.13,8.77,3.24,13.11q1.75,6.93,3.52,13.86c1.85,7.23,3.79,14.44,5.68,21.65l.25-.13c-1.76-7.14-3.46-14.28-5.26-21.41q-1.77-6.93-3.53-13.86c-1.11-4.38-2.08-8.85-3.45-13.17,0,0,0,0,0-.06-.06-.19-.11-.39-.18-.58,0,0,0-.05-.05-.06h0A.19.19,0,0,0,404.64,91Z" style="fill:#fff"></path><path d="M404.33,91.06s0,0,0,.06c0,.2,0,.4,0,.6.1,4.46.58,9,.91,13.41q.52,7.13,1.06,14.25c.58,7.69,1.27,15.36,1.9,23,0,0,0,0,0,0a1.07,1.07,0,0,0,.25,0c-.53-7.6-1-15.21-1.53-22.8q-.53-7.12-1.07-14.26c-.34-4.55-.52-9.19-1.12-13.71h0l-.06-.52s0-.06,0-.07A.18.18,0,0,0,404.33,91.06Z" style="fill:#fff"></path><path d="M404,91h0s0,0,0,.06c0,.19-.06.38-.09.59-.69,4.4-1,8.92-1.44,13.36q-.7,7.11-1.43,14.22c-.69,7-1.31,14.11-2,21.16l.29.12c.76-7,1.56-14,2.26-21,.49-4.73,1-9.48,1.43-14.22.45-4.53,1.07-9.1,1.27-13.64a5.78,5.78,0,0,0,0-.58.19.19,0,0,0,0-.08A.18.18,0,0,0,404,91Z" style="fill:#fff"></path><path d="M403.73,90.92a.08.08,0,0,0-.05.06l-.18.53c-1.45,4.24-2.52,8.64-3.73,12.94-1.3,4.59-2.61,9.17-3.89,13.76-1.53,5.45-3,10.92-4.49,16.38l.29.33c1.59-5.42,3.19-10.85,4.73-16.29q1.93-6.88,3.86-13.75c1.24-4.39,2.64-8.77,3.63-13.21.05-.19.09-.39.13-.58a.09.09,0,0,0,0-.07h0A.2.2,0,0,0,403.73,90.92Z" style="fill:#fff"></path><path d="M403.4,90.82l-.29.54c-2.16,3.91-4,8-5.91,12q-3.1,6.44-6.22,12.88-2.31,4.8-4.56,9.63l.21.66c1.61-3.25,3.22-6.51,4.8-9.78l6.21-12.88c2-4.11,4.12-8.19,5.86-12.41.08-.16.15-.34.22-.51a.12.12,0,0,0,0-.08.22.22,0,0,0-.27-.17h0Z" style="fill:#fff"></path><path d="M380.44,122.07h.61c1.94-2.65,3.88-5.29,5.8-8q4.18-5.8,8.34-11.6c2.65-3.7,5.47-7.34,7.92-11.17l.32-.51a.16.16,0,0,0,0-.09h0a.2.2,0,0,0-.25-.17l-.06,0-.36.45c-2.81,3.48-5.32,7.25-7.94,10.87-2.78,3.87-5.58,7.73-8.35,11.6Q383.46,117.8,380.44,122.07Z" style="fill:#fff"></path><path d="M371.82,120.69l.43.14c3.52-3.37,7.06-6.74,10.55-10.13l10.23-10c3.26-3.19,6.67-6.29,9.76-9.65.14-.13.26-.27.39-.41s0,0,0-.08a.19.19,0,0,0-.21-.23l-.06,0c-.13.12-.27.23-.39.35l-.05,0c-3.36,2.94-6.49,6.21-9.7,9.31q-5.13,5-10.24,10C379,113.58,375.39,117.14,371.82,120.69Z" style="fill:#fff"></path><path d="M364,116.55a1.93,1.93,0,0,0,.28.22h0c5.05-3.38,10.11-6.75,15.15-10.16l11.81-8.05c3.78-2.58,7.7-5,11.33-7.84l.41-.31a.16.16,0,0,0,0-.07c.05-.11,0-.27-.15-.25h0a.06.06,0,0,0-.07,0c-.17.1-.34.2-.5.31-3.83,2.3-7.48,5-11.17,7.49l-11.82,8C374.15,109.46,369.06,113,364,116.55Z" style="fill:#fff"></path><path d="M357.85,110l.18.25c6.25-2.76,12.52-5.47,18.75-8.28l13-5.88c4.15-1.86,8.42-3.61,12.47-5.71l.51-.27a.13.13,0,0,0,.06-.05h0a.22.22,0,0,0-.12-.3h-.09l-.57.22c-4.16,1.61-8.21,3.6-12.27,5.43l-13,5.88C370.44,104.2,364.16,107.13,357.85,110Z" style="fill:#fff"></path><path d="M354.27,101.82a2.3,2.3,0,0,0,.06.28c6.88-1.69,13.79-3.35,20.66-5.08l13.85-3.53c4.38-1.11,8.86-2.08,13.18-3.45,0,0,0,0,.05,0,.2-.06.39-.11.58-.18a.11.11,0,0,0,.08,0,.19.19,0,0,0-.08-.3h-.07l-.58.12h0c-4.37.86-8.7,2.12-13,3.22l-13.86,3.52C368.15,98.12,361.21,100,354.27,101.82Z" style="fill:#fff"></path><path d="M354.35,92.8a1,1,0,0,0-.08.31c6.61-.43,13.22-.83,19.82-1.32q7.13-.53,14.25-1.07c4.53-.34,9.13-.51,13.62-1.11.21,0,.41,0,.62-.07a.07.07,0,0,0,.07,0,.19.19,0,0,0,0-.31l-.07,0H402c-4.47.1-9,.59-13.42.92l-14.24,1.05C367.65,91.66,361,92.23,354.35,92.8Z" style="fill:#fff"></path><path d="M357.9,84.35a3.35,3.35,0,0,0-.21.36c5.47.6,10.94,1.22,16.42,1.78l14.23,1.42c4.52.45,9.09,1.07,13.64,1.27a5.63,5.63,0,0,0,.58,0l.08,0a.19.19,0,0,0,.05-.3h0l-.06,0-.59-.09c-4.41-.68-8.92-1-13.37-1.44l-14.22-1.43C368.93,85.35,363.42,84.86,357.9,84.35Z" style="fill:#fff"></path><path d="M362.53,77.18c0,.17.05.34.08.49,4.14,1.21,8.3,2.42,12.45,3.6l13.76,3.86c4.38,1.24,8.77,2.64,13.21,3.63l.57.13a.11.11,0,0,0,.08,0h0c.12,0,.18-.23.08-.31l-.06,0-.39-.14c-4.27-1.47-8.72-2.56-13.07-3.78-4.59-1.3-9.18-2.61-13.76-3.89Q369,78.94,362.53,77.18Z" style="fill:#fff"></path><path d="M362.53,68.81a2.44,2.44,0,0,0-.06.39c4.8,2.38,9.6,4.76,14.43,7.09l12.88,6.21c4.15,2,8.28,4.16,12.54,5.91a3.34,3.34,0,0,0,.38.17.16.16,0,0,0,.07,0,.17.17,0,0,0,.15-.26s0,0-.05,0l-.39-.21c-4-2.2-8.13-4-12.2-6Q383.86,79,377.4,75.85,370,72.3,362.53,68.81Z" style="fill:#fff"></path><path d="M365.08,60.68a3.31,3.31,0,0,0-.15.33c4.87,3.58,9.74,7.17,14.64,10.7l11.6,8.34c3.73,2.69,7.41,5.55,11.31,8,.12.08.24.16.37.23a.08.08,0,0,0,.07,0,.2.2,0,0,0,.2-.25h0a.1.1,0,0,0,0,0l-.43-.35c-3.49-2.81-7.25-5.32-10.89-7.94l-11.6-8.36C375.15,67.78,370.1,64.24,365.08,60.68Z" style="fill:#fff"></path><path d="M369.82,53.93c4.38,4.58,8.75,9.19,13.18,13.73,3.32,3.42,6.65,6.82,10,10.24,3.19,3.26,6.3,6.68,9.67,9.76.13.13.26.26.4.38a.06.06,0,0,0,.07,0h0a.19.19,0,0,0,.23-.21l0-.06c-.11-.13-.23-.27-.35-.39-2.94-3.39-6.23-6.53-9.35-9.74-3.34-3.42-6.65-6.85-10-10.25-4.5-4.6-9.05-9.16-13.59-13.72Z" style="fill:#fff"></path><path d="M376.88,49.07c3.39,5.07,6.76,10.16,10.19,15.2l8.05,11.81c2.59,3.78,5.05,7.7,7.84,11.33.1.14.22.27.32.41a.12.12,0,0,0,.07,0c.11.06.28,0,.25-.15h0a.08.08,0,0,0,0-.07c-.1-.17-.2-.34-.31-.5-2.31-3.83-5-7.47-7.5-11.17q-4-5.91-8-11.81c-3.48-5.09-7-10.15-10.53-15.21Z" style="fill:#fff"></path><path d="M385.69,48.09c2,4.53,4,9,6,13.55l5.88,13c1.86,4.15,3.61,8.42,5.72,12.46.08.17.17.34.26.51a.15.15,0,0,0,0,.06h0c.11.06.28,0,.29-.12h0a.17.17,0,0,0,0-.07l-.18-.46c-1.61-4.2-3.61-8.29-5.47-12.38q-2.94-6.53-5.87-13c-2-4.51-4.11-9-6.19-13.48Z" style="fill:#fff"></path><path d="M394.45,50.84c.72,3,1.47,6,2.23,9,1.16,4.62,2.35,9.23,3.52,13.85,1.14,4.44,2.11,9,3.5,13.35.05.16.09.31.14.46a.13.13,0,0,0,.05.07h0a.19.19,0,0,0,.3-.08s0,0,0-.06l-.12-.62c-.86-4.37-2.12-8.71-3.22-13q-1.74-6.93-3.52-13.86-1.12-4.39-2.29-8.8Z" style="fill:#fff"></path><path d="M401.41,51.88q.24,3.54.49,7.08.53,7.13,1.07,14.24c.34,4.54.52,9.13,1.11,13.63,0,.2.05.41.07.61,0,0,0,.06,0,.07a.2.2,0,0,0,.32,0h0s0,0,0-.08c0-.22,0-.44,0-.67-.09-4.44-.58-8.9-.91-13.34-.35-4.75-.69-9.49-1.06-14.24-.19-2.6-.41-5.2-.62-7.8Z" style="fill:#fff"></path><path d="M408.55,46.43c-.46,4.19-.92,8.37-1.34,12.54-.49,4.75-.95,9.49-1.43,14.23-.45,4.5-1.06,9-1.27,13.56,0,.22,0,.44,0,.67a.15.15,0,0,0,0,.08h0a.19.19,0,0,0,.3,0s0,0,0-.06c0-.18.06-.36.08-.54.7-4.44,1-9,1.45-13.42.47-4.74,1-9.49,1.43-14.23q.65-6.55,1.22-13.13Z" style="fill:#fff"></path><path d="M417.18,43.53c-1.6,5.45-3.2,10.91-4.75,16.39q-1.95,6.89-3.87,13.76c-1.24,4.39-2.65,8.81-3.64,13.27,0,.16-.08.34-.12.51a.13.13,0,0,0,0,.09c0,.12.22.19.3.09h0l0,0c0-.14.09-.26.14-.4,1.48-4.27,2.56-8.71,3.79-13.08Q411,67.23,413,60.35c1.57-5.62,3.09-11.25,4.62-16.87A2.6,2.6,0,0,0,417.18,43.53Z" style="fill:#fff"></path><path d="M425.94,44.39c-2.85,5.78-5.72,11.55-8.53,17.37q-3.12,6.43-6.21,12.88c-2,4.15-4.17,8.28-5.92,12.54-.07.13-.11.25-.17.38a.06.06,0,0,0,0,.07h0a.18.18,0,0,0,.27.14.1.1,0,0,0,0,0c.08-.13.15-.26.22-.39,2.19-4,4-8.13,6-12.2,2.06-4.29,4.14-8.57,6.2-12.87,2.85-5.91,5.61-11.84,8.4-17.77A1.82,1.82,0,0,0,425.94,44.39Z" style="fill:#fff"></path><path d="M387.7,80c-2.19,4.34-3.58,8.54-2.34,13.4a20.79,20.79,0,0,0,8.1,11.35c8.1,5.91,18.32,4.32,25-2.49,3.16-3.21,5.83-9.09,5.58-13.72-.84-15.12-15.86-20.77-24.81-18A20,20,0,0,0,387.7,80Z" style="fill:#fff"></path><path d="M413.11,86.89c-.61-2.15-1.44-4-3.37-5.27a9.59,9.59,0,0,0-6.28-1.33,8.69,8.69,0,0,0-7.71,8.63,9.34,9.34,0,0,0,2.37,6.38c5,4.87,11.84,2.12,14-1.61A9.17,9.17,0,0,0,413.11,86.89Z" style="fill:#ebebeb"></path><path d="M106.09,331.92a3.31,3.31,0,0,0-.15.33,28,28,0,0,0-2.4,7.8,2.28,2.28,0,0,0-.06.39,25.73,25.73,0,0,0,.06,8c0,.17,0,.33.08.49s.09.46.14.69a28.36,28.36,0,0,0-4.85,6,2.12,2.12,0,0,0-.21.36,29.89,29.89,0,0,0-2.84,6.25,13.56,13.56,0,0,0-.5,1.84,1,1,0,0,0-.08.31,20.46,20.46,0,0,0,0,8.71,1.28,1.28,0,0,0,.07.28,22.7,22.7,0,0,0,2.87,7c.21.33.42.66.64,1l.18.25a26.68,26.68,0,0,0,5.94,6.26l.28.22h0a26.27,26.27,0,0,0,7.56,3.91l.43.14a27.74,27.74,0,0,0,8.19,1.25h.61a29.88,29.88,0,0,0,4.4-.41,22.77,22.77,0,0,0,1,4.25l.21.66h0a25.07,25.07,0,0,0,4.75,8l.29.33a23.77,23.77,0,0,0,7.39,5.48l.29.13a20.93,20.93,0,0,0,8.83,1.89h.27a20.09,20.09,0,0,0,8.71-2.16l.25-.14a22.64,22.64,0,0,0,7-5.79,1.68,1.68,0,0,0,.24-.29,26.44,26.44,0,0,0,4.38-8.07c.06-.16.12-.33.17-.49a27.32,27.32,0,0,0,1.19-6.19,19.4,19.4,0,0,0,2.5-.31,4.86,4.86,0,0,0,.55-.1,24.74,24.74,0,0,0,7.55-2.91,1.64,1.64,0,0,0,.39-.22,28.38,28.38,0,0,0,6.46-5.25,3.08,3.08,0,0,0,.24-.27,26.81,26.81,0,0,0,4.65-7.09l.12-.28q.33-.75.6-1.53a17.69,17.69,0,0,0,1-6.79c0-.11,0-.22,0-.32a18.41,18.41,0,0,0-2.74-8.22c-.07-.12-.14-.25-.22-.36a28,28,0,0,0-5.88-6.54l-.45-.36a36.87,36.87,0,0,0-5.11-3.4,21,21,0,0,0,.59-2.06,6.21,6.21,0,0,0,.14-.62h0a25.62,25.62,0,0,0,.42-8.14l-.06-.47a25.82,25.82,0,0,0-2.35-8c-.06-.12-.12-.22-.17-.33a23.28,23.28,0,0,0-5-6.7l-.24-.22a22,22,0,0,0-4.57-3.17,22.62,22.62,0,0,0-2.61-1.13,1.76,1.76,0,0,0-.3-.1,19.32,19.32,0,0,0-8.37-.92l-.39.05a23.69,23.69,0,0,0-8.16,2.65c-.16.08-.31.17-.46.26a31.11,31.11,0,0,0-6.64,4.95l-.51.5c-.69.7-1.37,1.43-2,2.19a27.87,27.87,0,0,0-4.36-2.92l-.6-.31a27.34,27.34,0,0,0-8.28-2.69l-.47-.06c-.31-.05-.63-.08-.93-.11a16.63,16.63,0,0,0-7.56.95l-.33.14a19.91,19.91,0,0,0-6.83,4.63l-.23.23-.36.37A26.11,26.11,0,0,0,106.09,331.92Z" style="fill:#ebebeb"></path><path d="M146.65,358.57l-.24.37a.19.19,0,0,0,0,.08.2.2,0,0,0,.25.2h0l.06,0,.34-.43c2.81-3.48,5.33-7.26,8-10.9,2.79-3.85,5.57-7.73,8.35-11.59,3.81-5.31,7.56-10.66,11.33-16l-.24-.22c-3.83,5.21-7.65,10.4-11.43,15.64-2.8,3.86-5.57,7.73-8.35,11.61C152,351,149.11,354.68,146.65,358.57Z" style="fill:#fff"></path><path d="M146.67,359.14a.09.09,0,0,0,0,.07h0a.18.18,0,0,0,.2.22l.07,0c.13-.12.26-.22.38-.34,3.39-2.95,6.54-6.24,9.75-9.37,3.41-3.32,6.84-6.64,10.25-10q6.32-6.18,12.57-12.45c-.06-.12-.12-.22-.17-.33C175.46,331,171.24,335,167,339.1l-10.24,10c-3.25,3.17-6.67,6.27-9.74,9.63,0,0,0,0,0,0S146.79,359,146.67,359.14Z" style="fill:#fff"></path><path d="M146.89,359.37a.12.12,0,0,0,0,.07c-.05.11,0,.28.16.26s.05,0,.07,0l.51-.31c3.83-2.31,7.46-5,11.17-7.5,3.93-2.68,7.88-5.35,11.81-8s7.81-5.39,11.71-8.1l-.06-.47c-3.93,2.62-7.87,5.24-11.78,7.9l-11.81,8.06c-3.78,2.57-7.7,5-11.33,7.84Z" style="fill:#fff"></path><path d="M147,359.7c-.06.11,0,.28.12.29h.07l.47-.18c4.2-1.62,8.28-3.62,12.38-5.47,4.35-2,8.69-3.9,13-5.87q4.32-1.95,8.62-3.95a6.21,6.21,0,0,0,.14-.62q-4.4,1.92-8.78,3.89l-13,5.87c-4.15,1.88-8.42,3.63-12.45,5.73-.18.08-.34.17-.51.26A.22.22,0,0,0,147,359.7Z" style="fill:#fff"></path><path d="M147.12,360a.19.19,0,0,0,.07.3h.07l.62-.12c4.36-.86,8.7-2.12,13-3.22,4.62-1.17,9.24-2.33,13.86-3.52,4-1,7.95-2.06,11.92-3.11l-.45-.36q-5.7,1.38-11.36,2.8L161,356.3c-4.43,1.14-9,2.11-13.34,3.5l-.47.14-.06.05Z" style="fill:#fff"></path><path d="M147.19,360.29a.19.19,0,0,0,0,.31s0,0,0,0,0,0,.07,0H148c4.44-.09,8.89-.58,13.33-.9q7.13-.52,14.25-1.07c5.75-.43,11.5-.93,17.24-1.41-.07-.12-.14-.25-.22-.36-5.6.37-11.2.72-16.8,1.13l-14.25,1.07c-4.53.34-9.12.51-13.62,1.11a6.18,6.18,0,0,0-.62.07A.1.1,0,0,0,147.19,360.29Z" style="fill:#fff"></path><path d="M147.2,360.6s0,0,0,0a.19.19,0,0,0,0,.31l.06,0,.54.08c4.43.7,9,1,13.41,1.45l14.23,1.43c6.7.67,13.41,1.25,20.12,1.87,0-.11,0-.22,0-.32-6.59-.72-13.18-1.47-19.78-2.14-4.74-.49-9.48-.95-14.22-1.43-4.51-.44-9-1.07-13.56-1.27l-.67,0A.1.1,0,0,0,147.2,360.6Z" style="fill:#fff"></path><path d="M147.07,361.21a0,0,0,0,0,.05,0l.53.19c4.24,1.45,8.64,2.52,12.95,3.74l13.76,3.88c6.47,1.82,13,3.55,19.44,5.32l.12-.28c-6.36-1.87-12.74-3.75-19.14-5.56L161,364.66c-4.4-1.24-8.8-2.65-13.26-3.64h0c-.17,0-.34-.09-.52-.12a.11.11,0,0,0-.08,0A.19.19,0,0,0,147.07,361.21Z" style="fill:#fff"></path><path d="M146.9,361.47h0s0,0,.06,0c.18.1.35.2.54.29,3.9,2.15,8,4,12.05,5.91L172.43,374c5.48,2.63,11,5.2,16.48,7.78a3.08,3.08,0,0,0,.24-.27c-5.39-2.67-10.78-5.34-16.2-7.95q-6.44-3.12-12.88-6.21c-4.11-2-8.19-4.13-12.42-5.87-.16-.08-.33-.15-.51-.22h-.07A.19.19,0,0,0,146.9,361.47Z" style="fill:#fff"></path><path d="M146.73,361.72h0l0,0,.46.36c3.47,2.81,7.24,5.32,10.86,7.94,3.87,2.78,7.73,5.58,11.6,8.35,4.11,2.95,8.24,5.85,12.37,8.77a1.64,1.64,0,0,0,.39-.22c-4-3-8.1-6-12.17-8.89-3.87-2.8-7.74-5.57-11.61-8.35-3.69-2.65-7.33-5.46-11.16-7.92l-.51-.32a.1.1,0,0,0-.09,0h0A.2.2,0,0,0,146.73,361.72Z" style="fill:#fff"></path><path d="M146.5,361.93l0,.06c.11.14.22.26.34.39,2.94,3.39,6.23,6.54,9.35,9.75q5,5.13,10,10.24c2.56,2.63,5.15,5.24,7.74,7.84a4.86,4.86,0,0,0,.55-.1q-3.81-4-7.66-8-5-5.11-10-10.23c-3.18-3.26-6.28-6.68-9.63-9.76l-.42-.39s-.05,0-.08,0h0A.19.19,0,0,0,146.5,361.93Z" style="fill:#fff"></path><path d="M146.25,362.09a.08.08,0,0,0,0,.07c.1.18.2.34.31.51,2.31,3.83,5,7.47,7.49,11.16l8,11.83c2.64,3.86,5.32,7.71,8,11.54.06-.16.12-.33.17-.49-2.49-3.73-5-7.47-7.5-11.18q-4-5.92-8.06-11.82c-2.56-3.78-5-7.71-7.83-11.33-.1-.14-.21-.27-.31-.4a.12.12,0,0,0-.07-.05C146.39,361.87,146.22,362,146.25,362.09Z" style="fill:#fff"></path><path d="M146,362.21h0a.08.08,0,0,0,0,.08l.22.57c1.61,4.16,3.6,8.21,5.43,12.28q2.94,6.51,5.88,13c2.62,5.81,5.32,11.59,8,17.39a1.68,1.68,0,0,0,.24-.29c-2.51-5.71-5-11.43-7.56-17.12l-5.88-13c-1.87-4.15-3.62-8.42-5.71-12.46l-.27-.52-.05-.06A.21.21,0,0,0,146,362.21Z" style="fill:#fff"></path><path d="M145.65,362.28a.15.15,0,0,0,0,.07c0,.17.07.35.1.52.86,4.4,2.13,8.76,3.24,13.11,1.17,4.62,2.34,9.23,3.52,13.86,1.85,7.22,3.79,14.43,5.68,21.65l.25-.14c-1.75-7.13-3.46-14.28-5.26-21.4q-1.77-6.93-3.53-13.86c-1.11-4.38-2.08-8.86-3.44-13.18,0,0,0,0,0-.05-.06-.19-.11-.39-.18-.58,0,0,0-.06-.05-.07h0A.19.19,0,0,0,145.65,362.28Z" style="fill:#fff"></path><path d="M145.34,362.29a.31.31,0,0,0,0,.07c0,.2,0,.39,0,.59.1,4.47.58,9,.91,13.41q.52,7.14,1.06,14.26c.58,7.69,1.27,15.36,1.9,23h.27c-.53-7.6-1-15.22-1.53-22.8q-.52-7.14-1.07-14.26c-.34-4.55-.51-9.19-1.12-13.72h0l-.06-.52s0-.06,0-.07A.19.19,0,0,0,145.34,362.29Z" style="fill:#fff"></path><path d="M145,362.25h0l0,.05-.09.59c-.69,4.41-1,8.92-1.44,13.37q-.71,7.11-1.43,14.22c-.69,7.05-1.31,14.11-2,21.15l.29.13c.76-7,1.56-14,2.26-20.95q.74-7.11,1.43-14.22c.45-4.53,1.08-9.1,1.27-13.65a5.49,5.49,0,0,0,0-.58.31.31,0,0,0,0-.08A.18.18,0,0,0,145,362.25Z" style="fill:#fff"></path><path d="M144.74,362.15a.1.1,0,0,0-.05.06l-.18.54c-1.45,4.23-2.52,8.64-3.73,12.94-1.3,4.59-2.61,9.17-3.89,13.76-1.53,5.45-3,10.92-4.49,16.38l.29.33c1.59-5.42,3.19-10.85,4.73-16.29q1.94-6.89,3.86-13.76c1.24-4.38,2.65-8.76,3.63-13.21.05-.18.09-.38.13-.57a.09.09,0,0,0,0-.07h0A.21.21,0,0,0,144.74,362.15Z" style="fill:#fff"></path><path d="M144.42,362.05l-.3.54c-2.16,3.91-4,8-5.91,12.06L132,387.52q-2.31,4.82-4.56,9.64l.21.66q2.43-4.87,4.8-9.78l6.21-12.88c2-4.11,4.13-8.2,5.86-12.41.08-.17.15-.34.22-.51a.15.15,0,0,0,0-.09.21.21,0,0,0-.27-.16h0Z" style="fill:#fff"></path><path d="M121.45,393.31h.61c1.94-2.65,3.88-5.29,5.8-8q4.19-5.79,8.34-11.6c2.65-3.69,5.47-7.33,7.92-11.17.11-.17.22-.33.32-.5a.16.16,0,0,0,0-.09h0a.21.21,0,0,0-.25-.18l-.06.05-.36.45c-2.8,3.48-5.32,7.25-7.94,10.87l-8.35,11.6Q124.47,389,121.45,393.31Z" style="fill:#fff"></path><path d="M112.83,391.92l.43.14c3.53-3.36,7.06-6.73,10.55-10.13s6.82-6.65,10.23-10,6.67-6.28,9.76-9.64c.14-.14.26-.27.39-.42a.08.08,0,0,0,0-.08c0-.12-.09-.26-.21-.22l-.06,0-.39.35-.05,0c-3.36,2.94-6.49,6.22-9.7,9.32l-10.24,10Q118.17,386.58,112.83,391.92Z" style="fill:#fff"></path><path d="M105,387.79l.28.22h0c5-3.37,10.11-6.74,15.15-10.16q5.91-4,11.81-8c3.78-2.58,7.7-5.05,11.33-7.84l.41-.31a.1.1,0,0,0,0-.07c.06-.11,0-.28-.15-.26h0a.06.06,0,0,0-.07,0c-.17.09-.34.2-.5.3-3.83,2.31-7.48,5-11.17,7.5l-11.82,8C115.16,380.69,110.07,384.25,105,387.79Z" style="fill:#fff"></path><path d="M98.86,381.28l.18.25c6.25-2.76,12.52-5.48,18.75-8.28l13-5.88c4.14-1.87,8.41-3.62,12.46-5.72l.51-.26a.13.13,0,0,0,.06-.05h0a.21.21,0,0,0-.12-.29h-.08l-.58.22c-4.15,1.6-8.21,3.6-12.27,5.43l-13,5.87C111.45,375.44,105.17,378.37,98.86,381.28Z" style="fill:#fff"></path><path d="M95.28,373.06a1.28,1.28,0,0,0,.07.28c6.87-1.69,13.78-3.35,20.65-5.08l13.85-3.53c4.38-1.11,8.86-2.09,13.18-3.45a0,0,0,0,0,.05,0l.58-.18a.11.11,0,0,0,.08,0,.19.19,0,0,0-.08-.3.08.08,0,0,0-.07,0c-.19,0-.39.07-.58.12,0,0,0,0,0,0-4.37.86-8.69,2.12-13,3.22l-13.86,3.52C109.16,369.36,102.22,371.23,95.28,373.06Z" style="fill:#fff"></path><path d="M95.36,364a1,1,0,0,0-.08.31c6.61-.43,13.22-.84,19.82-1.33L129.35,362c4.53-.34,9.13-.51,13.62-1.11.21,0,.41-.05.62-.07a.07.07,0,0,0,.07,0,.19.19,0,0,0,0-.31s0,0-.06,0H143c-4.47.09-9,.58-13.42.91l-14.24,1.06C108.66,362.9,102,363.47,95.36,364Z" style="fill:#fff"></path><path d="M98.91,355.59a2.12,2.12,0,0,0-.21.36c5.47.6,10.94,1.22,16.42,1.78l14.23,1.42c4.52.45,9.09,1.07,13.64,1.27l.58,0,.08,0a.2.2,0,0,0,0-.31h0l-.06,0c-.2,0-.39-.07-.59-.09-4.41-.68-8.92-1-13.36-1.44l-14.22-1.43C109.94,356.59,104.43,356.1,98.91,355.59Z" style="fill:#fff"></path><path d="M103.54,348.42c0,.17,0,.33.08.49,4.14,1.21,8.3,2.42,12.45,3.59q6.87,2,13.76,3.87c4.38,1.24,8.77,2.64,13.21,3.63l.57.13h.09c.12,0,.18-.22.08-.3a.09.09,0,0,0-.06,0l-.39-.14c-4.27-1.47-8.72-2.56-13.07-3.79-4.59-1.29-9.18-2.6-13.76-3.88C112.18,350.77,107.86,349.6,103.54,348.42Z" style="fill:#fff"></path><path d="M103.54,340.05a2.28,2.28,0,0,0-.06.39c4.8,2.37,9.6,4.76,14.43,7.08q6.42,3.12,12.88,6.21c4.15,2,8.28,4.17,12.54,5.92l.38.17h.07a.17.17,0,0,0,.15-.26l-.05-.05a2.93,2.93,0,0,0-.39-.21c-4-2.2-8.13-4.05-12.2-6q-6.42-3.12-12.88-6.21C113.47,344.71,108.5,342.38,103.54,340.05Z" style="fill:#fff"></path><path d="M106.09,331.92a3.31,3.31,0,0,0-.15.33c4.87,3.57,9.74,7.17,14.64,10.69,3.87,2.8,7.74,5.57,11.6,8.35s7.41,5.54,11.31,8l.37.23.07,0a.2.2,0,0,0,.2-.25h0a.1.1,0,0,0,0-.05l-.43-.35c-3.49-2.81-7.25-5.33-10.89-7.95l-11.6-8.35C116.16,339,111.11,335.47,106.09,331.92Z" style="fill:#fff"></path><path d="M110.83,325.17c4.38,4.58,8.75,9.18,13.18,13.73q5,5.13,10,10.23c3.19,3.27,6.3,6.69,9.67,9.77l.4.38s0,0,.07,0h0a.19.19,0,0,0,.23-.21l0-.06c-.11-.13-.23-.27-.35-.39-2.94-3.4-6.23-6.53-9.35-9.75q-5-5.13-10-10.24c-4.5-4.61-9-9.16-13.58-13.72Z" style="fill:#fff"></path><path d="M117.89,320.31c3.39,5.06,6.76,10.16,10.19,15.2,2.68,3.94,5.38,7.87,8,11.81,2.59,3.77,5.05,7.7,7.84,11.33l.32.4a.09.09,0,0,0,.07.05c.11.06.28-.05.25-.16h0a.08.08,0,0,0,0-.07c-.1-.17-.2-.34-.31-.51-2.31-3.83-5-7.46-7.5-11.16q-4-5.91-8-11.82c-3.48-5.09-7-10.14-10.53-15.21Z" style="fill:#fff"></path><path d="M126.71,319.33c2,4.52,4,9,6,13.55l5.88,13c1.86,4.14,3.61,8.41,5.72,12.45.08.18.17.35.26.52l0,.06h0a.2.2,0,0,0,.29-.11h0a.17.17,0,0,0,0-.07l-.18-.47c-1.61-4.2-3.61-8.28-5.47-12.38q-2.94-6.52-5.87-13-3.06-6.75-6.19-13.47Z" style="fill:#fff"></path><path d="M135.46,322.08c.73,3,1.47,6,2.23,9,1.16,4.62,2.35,9.24,3.52,13.86,1.14,4.44,2.11,9,3.5,13.34,0,.17.09.32.14.47a.13.13,0,0,0,.05.07h0a.19.19,0,0,0,.3-.08s0,0,0-.06l-.12-.62c-.86-4.37-2.12-8.71-3.22-13q-1.74-6.92-3.52-13.85c-.75-2.93-1.51-5.87-2.29-8.8Z" style="fill:#fff"></path><path d="M142.42,323.12q.24,3.54.49,7.07c.35,4.76.71,9.5,1.07,14.25.34,4.53.52,9.12,1.11,13.63,0,.2,0,.41.07.61a.16.16,0,0,0,0,.07.21.21,0,0,0,.32,0h0s0,0,0-.08c0-.22,0-.45,0-.68-.09-4.43-.58-8.89-.91-13.33-.35-4.75-.69-9.5-1.06-14.25-.19-2.59-.41-5.2-.62-7.79Z" style="fill:#fff"></path><path d="M149.57,317.67c-.47,4.18-.93,8.36-1.35,12.54-.49,4.75-.95,9.48-1.43,14.22-.44,4.5-1.06,9-1.27,13.56,0,.23,0,.45,0,.67a.24.24,0,0,0,0,.09h0a.18.18,0,0,0,.3,0,.09.09,0,0,0,0,0c0-.18.06-.37.08-.55.7-4.44,1-9,1.45-13.41q.72-7.11,1.43-14.23.65-6.56,1.22-13.13C149.87,317.49,149.72,317.58,149.57,317.67Z" style="fill:#fff"></path><path d="M158.19,314.76c-1.6,5.46-3.2,10.92-4.75,16.4q-2,6.87-3.87,13.76c-1.24,4.39-2.65,8.8-3.64,13.26l-.12.52a.19.19,0,0,0,0,.08c0,.13.22.2.3.1h0l0-.05c0-.14.09-.26.14-.4,1.48-4.27,2.56-8.71,3.79-13.08,1.3-4.59,2.6-9.16,3.88-13.76,1.57-5.61,3.09-11.24,4.62-16.87Z" style="fill:#fff"></path><path d="M167,315.63c-2.85,5.78-5.72,11.55-8.53,17.36q-3.12,6.45-6.21,12.88c-2,4.15-4.17,8.29-5.92,12.55-.07.13-.11.25-.17.38a.06.06,0,0,0,0,.07h0a.19.19,0,0,0,.27.14l0,0c.08-.13.15-.26.22-.4,2.19-3.95,4-8.12,6-12.19,2.06-4.29,4.15-8.57,6.2-12.87,2.85-5.91,5.61-11.85,8.4-17.78A1.76,1.76,0,0,0,167,315.63Z" style="fill:#fff"></path><path d="M128.71,351.2c-2.19,4.34-3.58,8.54-2.34,13.4a20.79,20.79,0,0,0,8.1,11.35c8.11,5.91,18.32,4.32,25-2.5,3.16-3.2,5.83-9.09,5.58-13.71-.84-15.12-15.86-20.78-24.81-18A19.93,19.93,0,0,0,128.71,351.2Z" style="fill:#fff"></path><path d="M154.12,358.13c-.61-2.15-1.44-4-3.37-5.27a9.53,9.53,0,0,0-6.28-1.33,8.69,8.69,0,0,0-7.71,8.63,9.39,9.39,0,0,0,2.37,6.38c5,4.87,11.84,2.12,14-1.61A9.17,9.17,0,0,0,154.12,358.13Z" style="fill:#ebebeb"></path><path d="M365.45,459.83l.25,0a19.4,19.4,0,0,0,5.53-.4,1.1,1.1,0,0,0,.26-.06,17.14,17.14,0,0,0,5.05-2l.29-.17.41-.26a19.16,19.16,0,0,0,5,1.61l.28.05a21,21,0,0,0,4.66.26,9.09,9.09,0,0,0,1.29-.14l.21,0a14,14,0,0,0,5.53-2.14l.16-.11a15.69,15.69,0,0,0,3.7-3.54c.16-.21.32-.42.47-.65l.12-.17a18.22,18.22,0,0,0,2.51-5.3c0-.08,0-.15.07-.24h0a18,18,0,0,0,.62-5.75c0-.1,0-.2,0-.31a18.93,18.93,0,0,0-1.22-5.5l-.15-.39a19.75,19.75,0,0,0-1.33-2.69,15.68,15.68,0,0,0,2.45-1.65l.37-.3h0a16.89,16.89,0,0,0,3.91-5c.05-.08.09-.18.14-.26a16.26,16.26,0,0,0,1.66-6c0-.07,0-.14,0-.21a14.17,14.17,0,0,0-1-6.07h0a.94.94,0,0,0-.06-.15,13.66,13.66,0,0,0-3.51-5l-.15-.12a15.27,15.27,0,0,0-5.41-3.05,1.13,1.13,0,0,0-.24-.08,18.18,18.18,0,0,0-6.19-.8l-.36,0a18.34,18.34,0,0,0-4.22.76,13.68,13.68,0,0,0-.8-1.51l-.21-.33a16.83,16.83,0,0,0-3.7-4.07,2.11,2.11,0,0,0-.23-.19,19.2,19.2,0,0,0-4.92-2.8.92.92,0,0,0-.23-.09,18.26,18.26,0,0,0-5.64-1.21H369.5a11.83,11.83,0,0,0-4.56,1l-.2.08a12.62,12.62,0,0,0-4.54,3.76l-.17.22a19.17,19.17,0,0,0-2.7,5.34l-.12.37a25,25,0,0,0-.9,4.08c-.49,0-1,.07-1.46.13l-.42.07h0a17.32,17.32,0,0,0-5.26,1.74l-.29.15a17.58,17.58,0,0,0-4.48,3.45l-.17.19a15.73,15.73,0,0,0-3,4.83,1.8,1.8,0,0,0-.08.21,15.11,15.11,0,0,0-.89,3.68,14,14,0,0,0-.07,1.93,1.47,1.47,0,0,0,0,.21,13.37,13.37,0,0,0,1.48,5.54l.13.23a16,16,0,0,0,3.68,4.53l.28.23a20.94,20.94,0,0,0,4.77,3l.44.2c.62.27,1.25.52,1.88.73a19.68,19.68,0,0,0-.78,3.48c0,.16,0,.31-.05.46a18.9,18.9,0,0,0,.33,5.91c0,.11.05.22.08.32s.1.41.16.62A11.39,11.39,0,0,0,355,455l.17.18a13.81,13.81,0,0,0,4.61,3.2,1.21,1.21,0,0,1,.2.09l.33.13A17.8,17.8,0,0,0,365.45,459.83Z" style="fill:#ebebeb"></path><path d="M372.39,427.56l.29.06h.05a.13.13,0,0,0,.07-.2h0l0,0-.36-.11c-2.9-.93-5.91-1.6-8.86-2.37l-9.41-2.44c-4.3-1.11-8.62-2.18-12.93-3.26a1.8,1.8,0,0,0-.08.21c4.24,1.15,8.48,2.3,12.72,3.41l9.42,2.44C366.28,426.05,369.32,427,372.39,427.56Z" style="fill:#fff"></path><path d="M372.74,427.41h.06a.13.13,0,0,0,.09-.19s0,0,0,0l-.31-.16c-2.71-1.43-5.57-2.62-8.34-3.88-2.95-1.35-5.89-2.71-8.85-4-3.64-1.66-7.31-3.29-11-4.92l-.17.19c3.6,1.69,7.19,3.38,10.8,5l8.85,4c2.82,1.29,5.62,2.69,8.5,3.81h0Z" style="fill:#fff"></path><path d="M372.84,427.21h.05c.08,0,.17-.09.13-.16a.13.13,0,0,0,0-.05l-.32-.24c-2.41-1.86-5-3.51-7.5-5.24l-8-5.52c-2.66-1.83-5.34-3.63-8-5.43l-.29.15q3.94,2.77,7.91,5.53l8,5.51c2.56,1.77,5.09,3.65,7.76,5.26Z" style="fill:#fff"></path><path d="M373,427.06c.08,0,.18-.07.15-.15h0l0,0-.23-.25c-2.06-2.27-4.33-4.37-6.52-6.51l-6.92-6.83c-1.53-1.51-3.08-3-4.63-4.5l-.42.07q2.29,2.31,4.62,4.61l6.93,6.82c2.21,2.17,4.37,4.45,6.69,6.49l.29.26Z" style="fill:#fff"></path><path d="M373.17,426.91c.08,0,.19,0,.17-.12a.06.06,0,0,0,0,0c-.07-.12-.15-.24-.23-.36-1.61-2.56-3.48-5-5.23-7.47L362.23,411c-1.62-2.27-3.26-4.53-4.9-6.79l-.12.37q2.28,3.29,4.57,6.52l5.64,7.92c1.81,2.54,3.54,5.18,5.5,7.61l.2.26.05,0Z" style="fill:#fff"></path><path d="M373.34,426.79a.13.13,0,0,0,.2-.08h0s0,0,0,0-.11-.28-.17-.43c-1.15-2.79-2.55-5.5-3.85-8.23q-2.08-4.39-4.18-8.78c-1.68-3.54-3.41-7.06-5.13-10.58l-.17.22c1.61,3.46,3.21,6.93,4.84,10.38q2.08,4.39,4.18,8.78c1.33,2.79,2.57,5.65,4.05,8.37l.2.37Z" style="fill:#fff"></path><path d="M373.54,426.71h0a.12.12,0,0,0,.2,0,.06.06,0,0,0,0,0c0-.12-.05-.25-.08-.37-.65-3-1.57-5.92-2.38-8.86Q370,412.71,368.7,408c-1.22-4.41-2.5-8.81-3.76-13.21l-.2.08c1.17,4.36,2.31,8.72,3.51,13.07.85,3.13,1.72,6.25,2.59,9.37s1.54,6,2.52,8.91c0,.15.1.29.14.44A.08.08,0,0,0,373.54,426.71Z" style="fill:#fff"></path><path d="M374,426.65a.09.09,0,0,0,0,0l0-.38c-.12-3-.52-6.1-.81-9.13-.3-3.23-.6-6.45-.92-9.68-.43-4.55-.93-9.1-1.4-13.64h-.21c.38,4.5.75,9,1.18,13.51q.45,4.85.93,9.67c.29,3.1.48,6.23.94,9.3h0c0,.12,0,.24.05.36a.08.08,0,0,0,0,.05A.14.14,0,0,0,374,426.65Z" style="fill:#fff"></path><path d="M374.16,426.68h0a.09.09,0,0,0,0-.05l.06-.41c.4-3,.54-6.08.78-9.1q.41-4.85.78-9.69c.33-4.12.61-8.24.89-12.36a.92.92,0,0,0-.23-.09c-.36,4.08-.74,8.15-1.06,12.23-.27,3.23-.52,6.46-.78,9.69s-.6,6.21-.67,9.32c0,.12,0,.25,0,.38l0,0A.13.13,0,0,0,374.16,426.68Z" style="fill:#fff"></path><path d="M374.37,426.73h0l0,0,.12-.37c.93-2.9,1.59-5.91,2.37-8.85.81-3.13,1.63-6.27,2.44-9.41.86-3.33,1.69-6.66,2.52-10a2.11,2.11,0,0,0-.23-.19c-.89,3.3-1.79,6.6-2.65,9.91l-2.45,9.41c-.76,3-1.66,6-2.27,9,0,.13-.05.26-.08.39a.06.06,0,0,0,0,.07h0A.14.14,0,0,0,374.37,426.73Z" style="fill:#fff"></path><path d="M374.55,426.83l0,0c.06-.11.12-.2.17-.31,1.42-2.7,2.61-5.56,3.88-8.33q2-4.42,4-8.85c1-2.27,2.06-4.56,3.08-6.84l-.21-.33q-1.6,3.4-3.18,6.83c-1.34,3-2.69,5.89-4,8.85s-2.69,5.62-3.82,8.51c-.05.12-.1.23-.14.35a.06.06,0,0,0,0,.06h0C374.38,426.82,374.49,426.88,374.55,426.83Z" style="fill:#fff"></path><path d="M374.72,427s0,0,0,0a3.92,3.92,0,0,0,.25-.32c1.86-2.4,3.51-5,5.23-7.49,1.85-2.67,3.69-5.33,5.53-8s3.58-5.26,5.36-7.91l-.36,0q-2.64,3.74-5.25,7.5l-5.52,8c-1.76,2.56-3.64,5.1-5.25,7.76-.07.1-.12.19-.18.29a.11.11,0,0,0,0,.06C374.55,426.91,374.65,427,374.72,427Z" style="fill:#fff"></path><path d="M374.86,427.11h0s0,0,0,0l.31-.28c2.25-2,4.32-4.3,6.45-6.46s4.55-4.61,6.82-6.93c3.05-3.09,6.05-6.22,9.07-9.34a1.13,1.13,0,0,0-.24-.08c-3,3-6,6-9,9l-6.82,6.93c-2.17,2.2-4.44,4.36-6.49,6.68-.1.1-.18.2-.27.3s0,0,0,.05A.14.14,0,0,0,374.86,427.11Z" style="fill:#fff"></path><path d="M375,427.28h0l.3-.19c2.59-1.63,5-3.51,7.53-5.28l7.92-5.64c4.13-2.94,8.22-5.94,12.34-8.92l-.15-.12c-4.09,2.86-8.21,5.7-12.29,8.59l-7.92,5.64c-2.5,1.78-5.1,3.5-7.51,5.43l0,0-.32.26a.05.05,0,0,0,0,.05h0C374.84,427.19,374.9,427.29,375,427.28Z" style="fill:#fff"></path><path d="M375.07,427.47h.05l.37-.15c2.81-1.16,5.54-2.57,8.28-3.87l8.78-4.18c4.74-2.26,9.43-4.58,14.15-6.87h0a.94.94,0,0,0-.06-.15c-4.7,2.2-9.41,4.35-14.09,6.57L383.76,423c-2.8,1.34-5.7,2.58-8.42,4.08h0l-.31.16,0,0A.12.12,0,0,0,375.07,427.47Z" style="fill:#fff"></path><path d="M375.12,427.68h.05l.39-.08c3-.65,5.9-1.57,8.83-2.38l9.37-2.58c4.65-1.3,9.27-2.64,13.9-4,0-.07,0-.14,0-.21-4.61,1.23-9.24,2.44-13.85,3.71l-9.37,2.59c-3,.83-6,1.55-9,2.55-.13,0-.25.08-.37.12l-.05,0A.13.13,0,0,0,375.12,427.68Z" style="fill:#fff"></path><path d="M375.13,427.89h.43c3-.12,6.1-.52,9.13-.81l9.68-.92c3.83-.37,7.66-.78,11.49-1.18.05-.08.09-.18.14-.26-3.83.32-7.67.64-11.49,1l-9.68.93c-3.08.3-6.21.48-9.27,1l-.39,0-.05,0h0A.13.13,0,0,0,375.13,427.89Z" style="fill:#fff"></path><path d="M375.15,428.12l.41.05c3,.41,6.08.55,9.1.79l9.69.78q3.61.28,7.23.53l.37-.3q-3.69-.35-7.38-.64l-9.7-.77c-3.09-.25-6.21-.61-9.31-.67l-.37,0-.06,0a.14.14,0,0,0,0,.21h0Z" style="fill:#fff"></path><path d="M400.61,435l-.15-.39c-2.15-.58-4.3-1.16-6.46-1.72l-9.41-2.44c-3-.77-6-1.66-9-2.28l-.4-.08h-.07a.14.14,0,0,0,0,.2l0,0,.37.11c2.9.93,5.9,1.6,8.84,2.37,3.14.81,6.28,1.64,9.41,2.44Q397.16,434.15,400.61,435Z" style="fill:#fff"></path><path d="M401.85,440.81c0-.1,0-.2,0-.31-3-1.41-6-2.82-9-4.2l-8.85-4c-2.82-1.29-5.62-2.69-8.51-3.83l-.36-.14H375a.13.13,0,0,0-.09.19l0,0,.31.16,0,0c2.7,1.42,5.54,2.6,8.3,3.87l8.85,4C395.59,438,398.72,439.42,401.85,440.81Z" style="fill:#fff"></path><path d="M401.16,446.81c0-.08,0-.15.07-.24h0c-3.39-2.37-6.77-4.75-10.17-7.1-2.66-1.85-5.34-3.68-8-5.52s-5.09-3.65-7.76-5.26l-.3-.18H375c-.08,0-.17.09-.12.16h0s0,0,0,0l.32.25c2.41,1.86,5,3.52,7.5,5.24l8,5.52C394.16,442.09,397.66,444.45,401.16,446.81Z" style="fill:#fff"></path><path d="M398.53,452.28l.12-.17c-3.29-3.28-6.55-6.6-9.86-9.86l-6.93-6.81c-2.2-2.17-4.36-4.45-6.69-6.5l-.29-.26-.05,0h0a.15.15,0,0,0-.16.15l0,.05a4.12,4.12,0,0,1,.28.31c2,2.24,4.31,4.32,6.46,6.45l6.93,6.82C391.73,445.74,395.14,449,398.53,452.28Z" style="fill:#fff"></path><path d="M394.2,456.58l.16-.11c-2.76-4-5.51-7.92-8.3-11.85-1.87-2.64-3.76-5.28-5.64-7.92s-3.5-5.11-5.42-7.51c0,0,0,0,0,0l-.25-.33s0,0-.05,0a.12.12,0,0,0-.17.12s0,0,0,.05a3.26,3.26,0,0,0,.22.34v0c1.61,2.56,3.48,5,5.24,7.46l5.63,7.92C388.44,448.68,391.33,452.63,394.2,456.58Z" style="fill:#fff"></path><path d="M388.46,458.74l.21,0c-1.89-4.09-3.77-8.18-5.71-12.25-1.39-2.92-2.77-5.85-4.17-8.78-1.33-2.78-2.57-5.66-4.05-8.36-.06-.13-.14-.25-.2-.37s0,0,0,0a.13.13,0,0,0-.2.08.09.09,0,0,0,0,.05l.15.37c1.16,2.81,2.57,5.55,3.87,8.29q2.09,4.4,4.18,8.77C384.47,450.59,386.46,454.66,388.46,458.74Z" style="fill:#fff"></path><path d="M382.23,458.57l.28.05c-1-3.62-1.92-7.25-2.91-10.86L377,438.39c-.83-3-1.56-6-2.55-9l-.12-.37,0-.05a.13.13,0,0,0-.2.05h0s0,0,0,0l.09.4c.65,3,1.56,5.9,2.37,8.83.86,3.12,1.73,6.24,2.59,9.37C380.15,451.33,381.19,454.94,382.23,458.57Z" style="fill:#fff"></path><path d="M376.54,457.39l.29-.17c-.25-2.92-.5-5.86-.78-8.78-.3-3.22-.61-6.45-.92-9.67s-.48-6.21-.95-9.27c0-.13,0-.27-.06-.4a.05.05,0,0,0,0,0h0a.14.14,0,0,0-.22,0v0a2.81,2.81,0,0,0,0,.29c.11,3.07.51,6.16.81,9.22.3,3.23.6,6.46.92,9.68C375.91,451.33,376.23,454.36,376.54,457.39Z" style="fill:#fff"></path><path d="M371.23,459.45a1.1,1.1,0,0,0,.26-.06c.33-3.63.66-7.26.95-10.89.27-3.23.52-6.46.78-9.69s.6-6.28.67-9.41a2.53,2.53,0,0,0,0-.28.06.06,0,0,0,0-.05c0-.08-.16-.11-.2,0l0,0c0,.1,0,.2,0,.31-.42,3-.56,6.14-.8,9.2-.27,3.23-.53,6.47-.78,9.7C371.75,452,371.49,455.73,371.23,459.45Z" style="fill:#fff"></path><path d="M365.45,459.83l.25,0c1.07-4,2.15-7.94,3.18-11.92.82-3.14,1.63-6.27,2.44-9.41s1.7-6.06,2.3-9.13c0-.1,0-.2.06-.3s0,0,0,0a.14.14,0,0,0-.21-.07h0a.08.08,0,0,0,0,0l-.12.36c-.92,2.9-1.59,5.91-2.36,8.86q-1.23,4.69-2.45,9.41C367.48,451.7,366.47,455.77,365.45,459.83Z" style="fill:#fff"></path><path d="M360,458.49c1.83-3.91,3.68-7.82,5.48-11.74q2-4.42,4-8.84c1.29-2.82,2.7-5.63,3.82-8.53a2.13,2.13,0,0,0,.14-.35,0,0,0,0,0,0,0h0a.12.12,0,0,0-.18-.09l0,0a3.24,3.24,0,0,0-.17.32c-1.43,2.7-2.61,5.55-3.88,8.32-1.35,3-2.7,5.9-4,8.85-1.82,4-3.59,8-5.37,12A1.21,1.21,0,0,1,360,458.49Z" style="fill:#fff"></path><path d="M355.19,455.2c2.38-3.4,4.78-6.79,7.14-10.2l5.5-8c1.76-2.56,3.65-5.09,5.26-7.75.07-.1.12-.21.18-.3a.07.07,0,0,0,0-.06c0-.09-.1-.16-.17-.12h0s0,0,0,0a3.24,3.24,0,0,0-.24.31c-1.87,2.41-3.51,5-5.24,7.5-1.84,2.67-3.69,5.33-5.52,8-2.37,3.45-4.71,6.94-7.06,10.41Z" style="fill:#fff"></path><path d="M352.4,449.85q3.57-3.56,7.12-7.13l6.82-6.93c2.17-2.2,4.45-4.36,6.5-6.69.09-.09.17-.19.26-.29a.08.08,0,0,0,0,0h0a.13.13,0,0,0-.14-.16h0l-.05,0-.25.23c-2.27,2.05-4.36,4.32-6.51,6.51l-6.82,6.93c-2.36,2.4-4.69,4.81-7,7.23C352.35,449.64,352.37,449.75,352.4,449.85Z" style="fill:#fff"></path><path d="M352,443.62q2.6-1.8,5.17-3.62l7.92-5.65c2.53-1.81,5.17-3.54,7.6-5.49l.26-.21,0,0h0a.13.13,0,0,0-.12-.17h0l-.37.23c-2.56,1.62-5,3.48-7.47,5.24l-7.92,5.64c-1.68,1.19-3.35,2.4-5,3.61C352,443.32,352,443.47,352,443.62Z" style="fill:#fff"></path><path d="M350.94,439l4.37-2.05,8.77-4.18c2.79-1.33,5.66-2.57,8.37-4.05.13-.06.25-.13.37-.2l0,0a.14.14,0,0,0-.08-.2h0a3.25,3.25,0,0,0-.43.18c-2.79,1.14-5.5,2.55-8.23,3.85-2.93,1.39-5.86,2.77-8.78,4.17-1.6.76-3.2,1.54-4.79,2.31Z" style="fill:#fff"></path><path d="M345.73,435.76c2.77-.74,5.53-1.47,8.28-2.23l9.38-2.59c3-.82,6-1.54,8.91-2.52l.43-.15,0,0h0a.14.14,0,0,0,0-.2h-.05l-.36.08c-3,.65-5.93,1.56-8.86,2.38l-9.38,2.58c-2.88.81-5.75,1.63-8.63,2.46Z" style="fill:#fff"></path><path d="M341.77,431q5.78-.48,11.56-1c3.23-.3,6.46-.62,9.68-.93s6.24-.48,9.31-.95l.35-.05.06,0a.13.13,0,0,0,0-.21h-.33c-3.07.12-6.16.52-9.23.81l-9.68.92c-3.94.39-7.89.81-11.83,1.22Z" style="fill:#fff"></path><path d="M340.16,425.23c4.37.39,8.74.8,13.11,1.15l9.7.77c3.12.24,6.28.61,9.41.67l.28,0s0,0,0,0h0a.12.12,0,0,0,0-.21h0l-.3,0c-3.05-.42-6.15-.57-9.21-.81l-9.69-.77c-4.44-.36-8.89-.65-13.33-1A1.47,1.47,0,0,0,340.16,425.23Z" style="fill:#fff"></path><path d="M372.12,440.75c3.29.32,6.29.17,9.07-1.81A14.11,14.11,0,0,0,386.4,431c1.76-6.59-1.76-12.68-7.73-15.27a13.94,13.94,0,0,0-10.07-.16c-9.39,4.24-9.28,15.16-5.31,20.15A13.59,13.59,0,0,0,372.12,440.75Z" style="fill:#fff"></path><path d="M370.27,422.93a5.76,5.76,0,0,0-2.51,3.43,6.53,6.53,0,0,0,.69,4.31,5.91,5.91,0,0,0,7.37,2.77,6.41,6.41,0,0,0,3.47-3.07,6,6,0,0,0-9-7.44Z" style="fill:#ebebeb"></path><path d="M285.38,331c.05.14.08.29.14.43a36,36,0,0,0,4.42,9.38,2.78,2.78,0,0,0,.29.41,32.7,32.7,0,0,0,6.88,7.44,5.28,5.28,0,0,0,.5.39q.36.29.72.54a36.06,36.06,0,0,0,.58,9.77,4.35,4.35,0,0,0,.1.52,38.57,38.57,0,0,0,2.69,8.3,20.71,20.71,0,0,0,1.11,2.15,1.39,1.39,0,0,0,.19.36,25.94,25.94,0,0,0,7.46,8.18,1.43,1.43,0,0,0,.3.2,28.66,28.66,0,0,0,8.65,4.06c.48.15,1,.27,1.45.39l.38.08a33.93,33.93,0,0,0,10.93.8l.46,0h0a33.18,33.18,0,0,0,10.43-2.8,5.05,5.05,0,0,0,.53-.24,35.68,35.68,0,0,0,8.76-5.83l.58-.52a38.41,38.41,0,0,0,3.78-4.15,28.64,28.64,0,0,0,4.55,3.16l.76.44h0a31.93,31.93,0,0,0,11.32,3.44l.55.06a30,30,0,0,0,11.63-1.18l.38-.13a26.49,26.49,0,0,0,9.91-5.78s0,0,0,0a2.23,2.23,0,0,0,.21-.22,25.42,25.42,0,0,0,6.33-9.49l.12-.34a28.66,28.66,0,0,0,1.66-11.48,2.47,2.47,0,0,0,0-.47,33.74,33.74,0,0,0-2.8-11.33c-.08-.2-.17-.41-.26-.6a34.19,34.19,0,0,0-4.19-6.84,24.19,24.19,0,0,0,2.09-2.42c.16-.18.3-.38.44-.57a31.85,31.85,0,0,0,4.59-9.2,2.45,2.45,0,0,0,.18-.54,35.9,35.9,0,0,0,1.56-10.45,3.68,3.68,0,0,0,0-.47,34.45,34.45,0,0,0-1.71-10.64l-.13-.37c-.21-.65-.47-1.3-.74-1.94a22.13,22.13,0,0,0-4.88-7.23,4,4,0,0,0-.29-.29,23.33,23.33,0,0,0-9.6-5.38,4.84,4.84,0,0,0-.51-.14,35.76,35.76,0,0,0-11.12-1.11l-.73.05a46.47,46.47,0,0,0-7.71,1.18c-.36-.83-.78-1.65-1.21-2.44-.13-.25-.25-.46-.4-.7v0a32.05,32.05,0,0,0-6.57-8l-.46-.4a32.45,32.45,0,0,0-9-5.48l-.45-.16a29.26,29.26,0,0,0-10.44-2h-.42a28,28,0,0,0-7,.95,25.45,25.45,0,0,0-3.42,1.17,3.17,3.17,0,0,0-.37.15,24.54,24.54,0,0,0-8.64,6.32c-.11.12-.22.24-.33.38a30.16,30.16,0,0,0-5.39,9.47c-.08.21-.15.42-.22.64a39.78,39.78,0,0,0-2,10.33c0,.3,0,.6-.05.91-.06,1.24-.06,2.51,0,3.76a36,36,0,0,0-6.6,1l-.83.22a35.15,35.15,0,0,0-10.07,4.57l-.51.35c-.33.22-.65.46-1,.69a21.21,21.21,0,0,0-6.28,7.37c-.06.13-.13.26-.19.41a25.64,25.64,0,0,0-2.46,10.2c0,.13,0,.27,0,.41s0,.43,0,.65A33.41,33.41,0,0,0,285.38,331Z" style="fill:#ebebeb"></path><path d="M346.28,321.27a5.3,5.3,0,0,0,.1.55.47.47,0,0,0,0,.09.26.26,0,0,0,.41,0h0a.31.31,0,0,0,0-.08c0-.23,0-.46,0-.71-.34-5.67-1.21-11.37-1.87-17-.68-6-1.38-12-2.08-18-1-8.24-2-16.48-3.06-24.72h-.42c.87,8.17,1.72,16.33,2.66,24.47.68,6,1.4,12,2.1,18.05C344.79,309.61,345.26,315.51,346.28,321.27Z" style="fill:#fff"></path><path d="M346.78,321.78s0,.07,0,.09h0a.24.24,0,0,0,.39,0,.46.46,0,0,0,0-.09c0-.22.05-.43.07-.65.66-5.67.79-11.45,1.13-17.14q.54-9.06,1.08-18.14c.43-7.47.79-14.95,1.15-22.44l-.45-.16c-.5,7.41-1,14.8-1.47,22.22q-.54,9.06-1.07,18.14c-.34,5.77-.88,11.6-.89,17.38,0,0,0,0,0,0C346.78,321.32,346.78,321.55,346.78,321.78Z" style="fill:#fff"></path><path d="M347.19,321.81a.15.15,0,0,0,0,.11c0,.14.27.22.36.1a.09.09,0,0,0,.06-.07q.12-.36.21-.72c1.62-5.45,2.74-11.07,4.07-16.6q2.1-8.83,4.2-17.67c1.39-5.87,2.73-11.75,4.06-17.62l-.46-.4c-1.45,5.83-2.9,11.66-4.29,17.5s-2.79,11.79-4.19,17.68c-1.35,5.65-2.91,11.34-3.92,17.06C347.26,321.39,347.24,321.6,347.19,321.81Z" style="fill:#fff"></path><path d="M347.57,322a.26.26,0,0,0,.37.18v0s0,0,0-.06l.29-.57c2.56-5.11,4.68-10.48,6.94-15.74,2.41-5.56,4.82-11.1,7.21-16.67,1.59-3.69,3.15-7.38,4.72-11.09-.13-.25-.25-.46-.4-.7q-2.49,5.58-4.91,11.17c-2.41,5.56-4.8,11.11-7.21,16.67-2.29,5.31-4.8,10.61-6.79,16-.09.23-.17.45-.25.68A.65.65,0,0,0,347.57,322Z" style="fill:#fff"></path><path d="M347.94,322.2c0,.16.2.3.32.22l.07-.05c.16-.21.31-.42.47-.65,3.37-4.54,6.37-9.44,9.47-14.16,3.34-5.06,6.67-10.1,10-15.17,2.87-4.36,5.7-8.75,8.53-13.13l-.73.05q-4.17,6.18-8.27,12.36-5,7.59-10,15.17c-3.19,4.87-6.62,9.67-9.53,14.71l-.32.53a.17.17,0,0,0,0,.1Z" style="fill:#fff"></path><path d="M348.26,322.42a.25.25,0,0,0,.27.29s0,0,0,0,.05,0,.09,0c.21-.19.42-.39.62-.6,4.09-3.88,7.86-8.15,11.74-12.25q6.24-6.6,12.47-13.21c5-5.32,10-10.72,15-16.09a4.84,4.84,0,0,0-.51-.14c-4.94,5.13-9.9,10.26-14.81,15.44L360.64,309c-3.95,4.19-8.11,8.29-11.84,12.7-.18.19-.34.4-.51.6A.15.15,0,0,0,348.26,322.42Z" style="fill:#fff"></path><path d="M348.53,322.7s0,0,0,0a.24.24,0,0,0,.23.31.12.12,0,0,0,.08,0c.19-.13.39-.25.58-.39,4.75-3.13,9.26-6.73,13.83-10.12l14.59-10.84c6.85-5.11,13.65-10.31,20.48-15.47a4,4,0,0,0-.29-.29c-6.8,5-13.62,9.91-20.39,14.93q-7.31,5.4-14.58,10.83c-4.6,3.44-9.39,6.73-13.82,10.41l-.65.55A.16.16,0,0,0,348.53,322.7Z" style="fill:#fff"></path><path d="M348.93,323.38a.08.08,0,0,0,.08,0l.66-.28c5.21-2.27,10.27-5,15.36-7.58l16.24-8.13c7.62-3.83,15.21-7.77,22.8-11.66l-.13-.37c-7.57,3.7-15.17,7.39-22.72,11.17L365,314.67c-5.19,2.6-10.53,5.05-15.56,7.93h0l-.59.33a.13.13,0,0,0-.07.08A.23.23,0,0,0,348.93,323.38Z" style="fill:#fff"></path><path d="M349,323.77h.11l.76-.19c5.5-1.32,10.95-3.15,16.38-4.77l17.4-5.18c7.4-2.22,14.76-4.52,22.13-6.8a3.68,3.68,0,0,0,0-.47c-7.35,2.12-14.7,4.22-22,6.41q-8.72,2.58-17.41,5.2c-5.55,1.66-11.23,3.14-16.68,5.12l-.67.23s-.05,0-.07.06A.26.26,0,0,0,349,323.77Z" style="fill:#fff"></path><path d="M349.05,324.16h0a.14.14,0,0,0,.09,0l.73-.05c5.67-.34,11.35-1.2,17-1.84q9-1,18-2.1c6.38-.75,12.74-1.56,19.12-2.36a2.45,2.45,0,0,0,.18-.54c-6.35.68-12.71,1.35-19.05,2.08-6,.68-12,1.4-18.05,2.1-5.72.67-11.55,1.15-17.25,2.12l-.75.13a.17.17,0,0,0-.1.06h0A.27.27,0,0,0,349.05,324.16Z" style="fill:#fff"></path><path d="M349,324.54s0,0,.08,0c.22,0,.43.06.65.07,5.67.67,11.45.8,17.14,1.15L385,326.86c4.66.27,9.32.5,14,.73.16-.18.3-.38.44-.57-4.68-.34-9.35-.65-14-.93q-9.06-.54-18.13-1c-5.79-.34-11.62-.89-17.4-.92h-.73a.11.11,0,0,0-.09,0h0A.23.23,0,0,0,349,324.54Z" style="fill:#fff"></path><path d="M348.91,324.91a.12.12,0,0,0,.08.06l.72.21c5.45,1.62,11.07,2.76,16.58,4.07L384,333.46c5.78,1.38,11.59,2.69,17.39,4-.08-.2-.17-.41-.26-.6-5.53-1.38-11.07-2.76-16.62-4.08l-17.68-4.2c-5.65-1.35-11.33-2.91-17.06-3.93l-.63-.11a.16.16,0,0,0-.1,0C348.86,324.59,348.79,324.83,348.91,324.91Z" style="fill:#fff"></path><path d="M348.74,325.27v0s0,0,.07.06l.7.35c5.07,2.52,10.41,4.62,15.61,6.87l16.68,7.2c7.44,3.21,14.91,6.33,22.39,9.48a2.47,2.47,0,0,0,0-.47c-7.25-3.21-14.48-6.45-21.75-9.61L365.75,332c-5.32-2.29-10.62-4.8-16-6.81l-.69-.25-.11,0C348.77,324.94,348.65,325.15,348.74,325.27Z" style="fill:#fff"></path><path d="M348.52,325.6s0,0,.05.08l.54.39c4.58,3.41,9.5,6.41,14.26,9.55l15.18,10c7.92,5.2,15.91,10.31,23.86,15.46l.12-.34c-7.75-5.19-15.47-10.44-23.26-15.59l-15.18-10c-4.79-3.16-9.54-6.53-14.52-9.42,0,0,0,0-.06,0-.22-.14-.44-.28-.66-.4a.11.11,0,0,0-.11,0v0A.24.24,0,0,0,348.52,325.6Z" style="fill:#fff"></path><path d="M348.24,325.88a.14.14,0,0,0,0,.08l.51.55c3.92,4.11,8.22,7.91,12.34,11.81q6.6,6.24,13.2,12.47c7.13,6.73,14.35,13.34,21.51,20,0,0,0,0,0,0a2.23,2.23,0,0,0,.21-.22c-7-6.69-13.94-13.45-21-20.1-4.39-4.16-8.81-8.32-13.2-12.47-4.23-4-8.36-8.18-12.8-11.92h0c-.17-.14-.34-.28-.5-.43a.18.18,0,0,0-.09,0A.23.23,0,0,0,348.24,325.88Z" style="fill:#fff"></path><path d="M347.91,326.1h0s0,.06,0,.08c.13.22.27.42.42.63,3.13,4.73,6.71,9.22,10.09,13.78l10.83,14.57c5.39,7.22,10.85,14.37,16.27,21.54l.38-.13c-5.26-7.2-10.49-14.43-15.81-21.6q-5.4-7.29-10.84-14.58c-3.46-4.63-6.78-9.46-10.49-13.89a6.36,6.36,0,0,0-.46-.57l-.09-.06A.24.24,0,0,0,347.91,326.1Z" style="fill:#fff"></path><path d="M347.55,326.27a.1.1,0,0,0,0,.09l.29.66c2.26,5.21,5,10.27,7.57,15.34q4.06,8.13,8.14,16.25c3.23,6.43,6.53,12.82,9.81,19.22l.55.06c-3.15-6.44-6.29-12.91-9.51-19.33q-4.07-8.13-8.15-16.23c-2.6-5.18-5-10.49-7.9-15.51-.11-.22-.25-.43-.37-.65a.24.24,0,0,0-.08-.06h0A.25.25,0,0,0,347.55,326.27Z" style="fill:#fff"></path><path d="M347.16,326.45c.06.25.12.5.19.75,1.32,5.52,3.15,11,4.77,16.39q2.6,8.7,5.19,17.41c1.29,4.32,2.62,8.65,4,12.95l.76.44c-1.27-4.44-2.55-8.88-3.87-13.29q-2.6-8.7-5.2-17.41c-1.67-5.55-3.14-11.23-5.12-16.67-.07-.22-.15-.45-.23-.67,0,0,0-.07-.07-.08a.26.26,0,0,0-.39.07h0A.31.31,0,0,0,347.16,326.45Z" style="fill:#fff"></path><path d="M352.37,375.46l.58-.52c-.45-4.15-.89-8.29-1.37-12.43q-1-9-2.1-18c-.68-5.74-1.15-11.57-2.13-17.27,0-.25-.09-.49-.13-.74a.16.16,0,0,0-.05-.11h0a.25.25,0,0,0-.38.05.3.3,0,0,0,0,.1c0,.24,0,.48.05.73.34,5.67,1.21,11.35,1.85,17,.7,6,1.38,12,2.1,18C351.27,366.66,351.81,371.05,352.37,375.46Z" style="fill:#fff"></path><path d="M343.08,381.53a5.05,5.05,0,0,0,.53-.24c.43-6.17.87-12.36,1.24-18.54s.7-12.08,1-18.12c.34-5.78.89-11.62.91-17.41,0-.25,0-.48,0-.73,0,0,0-.08,0-.1a.24.24,0,0,0-.39,0,.46.46,0,0,0,0,.09c0,.22-.06.44-.07.66l0,.07c-.64,5.64-.78,11.4-1.13,17.06q-.54,9.09-1.06,18.14C343.7,368.75,343.4,375.14,343.08,381.53Z" style="fill:#fff"></path><path d="M332.17,384.38l.46,0h0c1.84-7.49,3.71-15,5.51-22.5,1.42-5.89,2.8-11.78,4.21-17.67,1.33-5.66,2.91-11.33,3.92-17.06,0-.21.07-.43.11-.64a.14.14,0,0,0,0-.11c-.05-.14-.27-.22-.37-.1h0a.09.09,0,0,0-.06.06c-.08.25-.14.49-.21.73-1.62,5.44-2.75,11.08-4.06,16.6q-2.13,8.82-4.22,17.66C335.66,369,333.93,376.69,332.17,384.38Z" style="fill:#fff"></path><path d="M320.86,383.5l.38.08c3.51-7.94,7.07-15.86,10.52-23.82L339,343.08c2.29-5.3,4.8-10.59,6.8-16,.1-.23.18-.46.26-.69a.16.16,0,0,0,0-.1h0a.26.26,0,0,0-.36-.17.16.16,0,0,0-.07.07c-.12.24-.23.47-.35.7-2.53,5.07-4.62,10.41-6.87,15.61q-3.6,8.34-7.21,16.67C327.68,367.24,324.29,375.37,320.86,383.5Z" style="fill:#fff"></path><path d="M310.46,378.85a1.43,1.43,0,0,0,.3.2c5-7.47,10.07-14.94,15-22.45q5-7.56,10-15.17c3.15-4.79,6.52-9.54,9.41-14.52,0,0,0,0,0-.06.13-.22.27-.44.39-.66,0-.05,0-.07,0-.11a.24.24,0,0,0-.33-.22.1.1,0,0,0-.07.05,5.24,5.24,0,0,0-.44.61s0,0,0,0c-3.37,4.55-6.35,9.44-9.46,14.17l-10,15.17C320.32,363.5,315.4,371.19,310.46,378.85Z" style="fill:#fff"></path><path d="M302.81,370.31a1.39,1.39,0,0,0,.19.36c5.84-6.06,11.7-12.1,17.47-18.21q6.24-6.6,12.47-13.2c4-4.2,8.13-8.3,11.84-12.71.18-.18.34-.39.51-.59a.09.09,0,0,0,0-.1.24.24,0,0,0-.28-.28.07.07,0,0,0-.07,0l-.55.52c-4.12,3.92-7.92,8.23-11.82,12.35-4.16,4.4-8.32,8.78-12.47,13.19C314.32,357.85,308.57,364.08,302.81,370.31Z" style="fill:#fff"></path><path d="M298.91,359.34a4.35,4.35,0,0,0,.1.52c5.66-4.12,11.33-8.22,16.95-12.39l14.57-10.85c4.64-3.44,9.46-6.78,13.9-10.49.2-.15.38-.3.57-.46a.41.41,0,0,0,.05-.09.23.23,0,0,0-.21-.33h0l-.08,0-.63.41c-4.72,3.15-9.22,6.71-13.78,10.1l-14.57,10.83C310.12,350.83,304.52,355.09,298.91,359.34Z" style="fill:#fff"></path><path d="M297.11,348.64a5.28,5.28,0,0,0,.5.39q7.39-3.6,14.77-7.28,8.12-4,16.23-8.15c5.17-2.59,10.49-5,15.5-7.91.22-.11.44-.24.65-.36a.16.16,0,0,0,.06-.08h0c.07-.15,0-.37-.18-.36l-.08,0-.5.21c-5.26,2.28-10.37,5.06-15.51,7.64q-8.13,4.07-16.24,8.14C307.25,343.46,302.18,346.06,297.11,348.64Z" style="fill:#fff"></path><path d="M289.94,340.79a2.78,2.78,0,0,0,.29.41c6.54-1.88,13.09-3.75,19.61-5.7l17.41-5.19c5.6-1.69,11.34-3.19,16.83-5.19a3,3,0,0,0,.5-.17.14.14,0,0,0,.08-.06.22.22,0,0,0-.09-.37h-.08a5.66,5.66,0,0,0-.56.13c-5.59,1.32-11.09,3.17-16.58,4.81-5.8,1.73-11.62,3.45-17.41,5.2C303.26,336.67,296.6,338.73,289.94,340.79Z" style="fill:#fff"></path><path d="M285.38,331c.05.14.08.29.14.43,7.64-.82,15.29-1.61,22.91-2.49q9-1,18-2.1c5.81-.68,11.71-1.14,17.47-2.17.19,0,.36-.06.55-.09l.09,0a.26.26,0,0,0,0-.41h0a.11.11,0,0,0-.08,0l-.7,0c-5.69.35-11.37,1.21-17,1.87-6,.68-12,1.39-18,2.08C300.91,329,293.14,330,285.38,331Z" style="fill:#fff"></path><path d="M284.05,320.58c8,.55,16.09,1.12,24.13,1.6l18.13,1.07c5.78.34,11.63.89,17.44.89.23,0,.46,0,.69,0,0,0,.07,0,.09,0h0a.23.23,0,0,0,0-.38l-.09,0c-.22,0-.44-.06-.66-.07-5.67-.67-11.44-.8-17.12-1.14-6.06-.35-12.1-.73-18.14-1.07-8.17-.47-16.35-.86-24.51-1.25C284.05,320.3,284.06,320.44,284.05,320.58Z" style="fill:#fff"></path><path d="M286.52,310c7.52,1.85,15,3.75,22.59,5.54,5.88,1.41,11.78,2.79,17.66,4.19,5.66,1.34,11.33,2.92,17.06,3.93l.64.11a.14.14,0,0,0,.11,0c.16-.05.22-.29.1-.37h0s0-.05-.06-.06l-.72-.21c-5.45-1.62-11.08-2.74-16.6-4.06-5.89-1.4-11.77-2.82-17.67-4.21-7.62-1.8-15.26-3.51-22.91-5.26C286.65,309.69,286.58,309.82,286.52,310Z" style="fill:#fff"></path><path d="M294,301.5c5.74,2.55,11.47,5.1,17.23,7.6l16.67,7.2c5.3,2.29,10.6,4.8,16,6.79l.68.26a.17.17,0,0,0,.1,0h0a.26.26,0,0,0,.18-.36h0a.09.09,0,0,0-.06-.06l-.56-.29c-5.12-2.56-10.49-4.67-15.74-6.93L311.8,308.5c-5.77-2.48-11.55-4.91-17.34-7.35Z" style="fill:#fff"></path><path d="M304.53,296.58q4.88,3.32,9.8,6.55c5.05,3.35,10.12,6.66,15.18,10,4.86,3.19,9.66,6.63,14.71,9.53a5.74,5.74,0,0,0,.53.32l.09,0h0a.25.25,0,0,0,.22-.33.12.12,0,0,0-.05-.06c-.21-.17-.42-.32-.65-.48-4.54-3.37-9.44-6.36-14.17-9.47q-7.56-5-15.16-10-4.83-3.17-9.69-6.3Z" style="fill:#fff"></path><path d="M312,291.61l6.51,6.21q6.6,6.26,13.21,12.46c4.19,4,8.29,8.13,12.7,11.85.19.18.4.35.6.51a.1.1,0,0,0,.1,0,.25.25,0,0,0,.29-.27s0,0,0,0,0,0,0-.09l-.6-.62c-3.88-4.09-8.16-7.85-12.26-11.74q-6.6-6.24-13.2-12.47c-2.4-2.26-4.83-4.53-7.25-6.78C312,291,312,291.3,312,291.61Z" style="fill:#fff"></path><path d="M314,280.37q4.72,6.5,9.48,12.93c3.61,4.87,7.23,9.71,10.84,14.57,3.43,4.61,6.73,9.4,10.41,13.82.18.23.37.43.55.66a.2.2,0,0,0,.09,0s0,0,0,0a.24.24,0,0,0,.31-.23.13.13,0,0,0,0-.08c-.13-.18-.25-.39-.38-.57-3.15-4.77-6.74-9.28-10.13-13.83L324.31,293.1q-5-6.71-10.1-13.37C314.13,279.94,314.06,280.15,314,280.37Z" style="fill:#fff"></path><path d="M319.6,270.26c3.18,6.49,6.35,13,9.59,19.46,2.69,5.42,5.42,10.82,8.14,16.22,2.59,5.19,5.05,10.55,7.95,15.58.1.19.21.39.33.58a.15.15,0,0,0,.07.07.24.24,0,0,0,.37-.16v0a.07.07,0,0,0,0-.06c-.07-.17-.13-.33-.21-.49-2.27-5.29-5.05-10.38-7.64-15.53q-4.07-8.13-8.13-16.24c-3.34-6.61-6.74-13.2-10.11-19.79C319.82,270,319.71,270.12,319.6,270.26Z" style="fill:#fff"></path><path d="M328.57,263.56c2.28,7.88,4.51,15.75,6.86,23.61q2.58,8.73,5.2,17.41c1.68,5.6,3.18,11.35,5.18,16.86.05.17.11.32.17.49s0,.05.06.06v0a.22.22,0,0,0,.36-.1.28.28,0,0,0,0-.09c0-.18-.09-.37-.14-.55-1.33-5.59-3.16-11.09-4.81-16.59-1.73-5.79-3.44-11.59-5.19-17.39-2.39-8-4.88-15.92-7.34-23.88A3.17,3.17,0,0,0,328.57,263.56Z" style="fill:#fff"></path><path d="M323.12,329.71c1.66,5.94,4,11.07,9.28,14.57A26.32,26.32,0,0,0,349.73,348c12.66-1.39,20.89-11.64,21.37-23.79.22-5.71-2.31-13.52-6.51-17.64-13.73-13.49-32.68-5.93-38.68,4.35C322.71,316.4,321.44,323.66,323.12,329.71Z" style="fill:#fff"></path><path d="M352.91,314.45c-2.41-1.5-4.78-2.52-7.67-2.06a12.22,12.22,0,0,0-7,4.12c-3.86,4.42-3.46,10.45.15,14.72a12,12,0,0,0,7.69,4c8.85.3,12.93-8.15,11.77-13.51A11.68,11.68,0,0,0,352.91,314.45Z" style="fill:#ebebeb"></path></g><g id="freepik--Plants--inject-7"><path d="M277.66,475.14a65.5,65.5,0,0,0,24.36-9.6,86.6,86.6,0,0,0,19.66-17.15,115.46,115.46,0,0,0,7.82-10.48c1.13-1.87,2.36-3.67,3.4-5.6l1.6-2.85,1.49-2.91c1-1.93,1.88-3.94,2.82-5.92s1.69-4,2.54-6,1.53-4.1,2.26-6.16l2-6.27a311.07,311.07,0,0,0,12.05-51.3c1.31-8.7,2.25-17.47,2.74-26.27.28-4.39.42-8.8.47-13.21s-.06-8.83-.39-13.24A176.46,176.46,0,0,1,362,324.65c-.06,2.21-.08,4.43-.19,6.65l-.36,6.64c-.37,4.42-.71,8.84-1.3,13.24s-1.21,8.8-1.91,13.18c-.33,2.19-.82,4.36-1.23,6.54s-.8,4.37-1.33,6.53l-1.54,6.48-.79,3.23-.9,3.21-1.79,6.42c-.58,2.14-1.34,4.23-2,6.35a145.93,145.93,0,0,1-10,24.78l-1.57,3-1.7,2.9c-1.09,1.95-2.38,3.78-3.57,5.67A105.42,105.42,0,0,1,323.52,450a84.09,84.09,0,0,1-20.72,16.86,73.81,73.81,0,0,1-12.17,5.48A50.78,50.78,0,0,1,277.66,475.14Z" style="fill:#455a64"></path><path d="M391.33,379.81a53.74,53.74,0,0,1-6.68,2.84q-3.37,1.2-6.79,2.17c-2.27.66-4.56,1.26-6.85,1.83l-7,1.63a23.08,23.08,0,0,1,6.18-4,45.65,45.65,0,0,1,6.81-2.51,55.23,55.23,0,0,1,7.06-1.55A37.45,37.45,0,0,1,391.33,379.81Z" style="fill:#455a64"></path><path d="M344,411.75c2.74-3.93,5.56-7.73,8.43-11.51,1.4-1.91,2.87-3.77,4.29-5.66L361,389c2.88-3.75,5.84-7.45,8.78-11.16s5.92-7.41,9.12-11a116.38,116.38,0,0,1-7.13,12.42c-2.59,4-5.37,7.88-8.29,11.65s-6,7.41-9.24,10.91A104.12,104.12,0,0,1,344,411.75Z" style="fill:#455a64"></path><path d="M357.65,359.59c2.22-4.63,4.57-9.15,6.94-13.65l3.56-6.74c.58-1.13,1.2-2.23,1.8-3.35l1.76-3.38c1.19-2.23,2.37-4.47,3.52-6.73l1.75-3.38c.55-1.14,1.12-2.26,1.71-3.39,2.24-4.54,4.44-9.1,6.55-13.79A76.88,76.88,0,0,1,380.93,320a142.42,142.42,0,0,1-6.45,14c-2.4,4.52-5,8.95-7.78,13.24A122.92,122.92,0,0,1,357.65,359.59Z" style="fill:#455a64"></path><path d="M401,315.45c-2.37,1.92-4.81,3.64-7.24,5.34s-4.89,3.35-7.34,5l-7.33,4.94-7.38,5.07a35.22,35.22,0,0,1,5.83-7,59.18,59.18,0,0,1,7.13-5.63,68.54,68.54,0,0,1,7.85-4.49A45.87,45.87,0,0,1,401,315.45Z" style="fill:#455a64"></path><path d="M344,355.41a52.75,52.75,0,0,1,4,8.35,74.15,74.15,0,0,1,2.71,8.81,54.27,54.27,0,0,1,1.4,9.18c0,.78,0,1.56,0,2.34s-.09,1.58-.15,2.36a22.72,22.72,0,0,1-.42,2.33,13.56,13.56,0,0,1-.82,2.21v-1.17a7,7,0,0,0,0-1.12c-.11-.76-.11-1.49-.26-2.23l-.36-2.21c-.16-.74-.31-1.47-.44-2.2-.63-2.92-1.32-5.84-2-8.77s-1.39-5.87-2-8.83S344.33,358.5,344,355.41Z" style="fill:#455a64"></path><path d="M336.94,371.86a8.46,8.46,0,0,1,3.88-.58,11.89,11.89,0,0,1,3.76.9,11.15,11.15,0,0,1,3.27,2.08,8.16,8.16,0,0,1,2.25,3.23,32.56,32.56,0,0,1-3.56-1.14c-1.09-.42-2.13-.83-3.18-1.27s-2.08-.91-3.14-1.41A30.38,30.38,0,0,1,336.94,371.86Z" style="fill:#455a64"></path><path d="M333.12,320.78s20.68,13.66,11.57,38.79C344.69,359.57,325.32,344.16,333.12,320.78Z" style="fill:#455a64"></path><path d="M300.74,361.15s22.73-9.9,38.84,11.44C339.58,372.59,316.1,380.44,300.74,361.15Z" style="fill:#455a64"></path><path d="M359.67,266.85s16.33,18.64.9,40.47C360.57,307.32,346,287.33,359.67,266.85Z" style="fill:#455a64"></path><path d="M395.13,274.58s9.29,23-12.46,38.52C382.67,313.1,375.44,289.42,395.13,274.58Z" style="fill:#455a64"></path><path d="M432.36,302.6s-11.29,22.07-37.28,15.79C395.08,318.39,408.25,297.43,432.36,302.6Z" style="fill:#455a64"></path><path d="M394.73,336.61s5,24.27-19.18,35.65C375.55,372.26,372.7,347.66,394.73,336.61Z" style="fill:#455a64"></path><path d="M422.2,363.54S411.88,386.08,385.64,381C385.64,381,397.89,359.43,422.2,363.54Z" style="fill:#455a64"></path><path d="M222.34,475.14a65.5,65.5,0,0,1-24.36-9.6,86.6,86.6,0,0,1-19.66-17.15,115.46,115.46,0,0,1-7.82-10.48c-1.13-1.87-2.36-3.67-3.4-5.6l-1.6-2.85L164,426.55c-1-1.93-1.88-3.94-2.82-5.92s-1.69-4-2.54-6-1.53-4.1-2.26-6.16l-2-6.27a311.07,311.07,0,0,1-12.05-51.3c-1.31-8.7-2.25-17.47-2.74-26.27-.28-4.39-.42-8.8-.47-13.21s.06-8.83.39-13.24A176.46,176.46,0,0,0,138,324.65c.06,2.21.08,4.43.19,6.65l.36,6.64c.37,4.42.71,8.84,1.3,13.24s1.21,8.8,1.91,13.18c.33,2.19.82,4.36,1.23,6.54s.8,4.37,1.33,6.53l1.54,6.48.79,3.23.9,3.21,1.79,6.42c.58,2.14,1.34,4.23,2,6.35a145.93,145.93,0,0,0,10,24.78l1.57,3,1.7,2.9c1.09,1.95,2.38,3.78,3.57,5.67A105.42,105.42,0,0,0,176.48,450a84.09,84.09,0,0,0,20.72,16.86,73.81,73.81,0,0,0,12.17,5.48A50.78,50.78,0,0,0,222.34,475.14Z" style="fill:#455a64"></path><path d="M108.67,379.81a53.74,53.74,0,0,0,6.68,2.84q3.38,1.2,6.79,2.17c2.27.66,4.56,1.26,6.85,1.83l7,1.63a23.08,23.08,0,0,0-6.18-4,45.65,45.65,0,0,0-6.81-2.51,55.23,55.23,0,0,0-7.06-1.55A37.45,37.45,0,0,0,108.67,379.81Z" style="fill:#455a64"></path><path d="M156,411.75c-2.74-3.93-5.56-7.73-8.43-11.51-1.4-1.91-2.87-3.77-4.29-5.66L139,389c-2.88-3.75-5.84-7.45-8.78-11.16s-5.92-7.41-9.12-11a116.38,116.38,0,0,0,7.13,12.42c2.59,4,5.37,7.88,8.29,11.65s6,7.41,9.24,10.91A104.12,104.12,0,0,0,156,411.75Z" style="fill:#455a64"></path><path d="M142.35,359.59c-2.22-4.63-4.57-9.15-6.94-13.65l-3.56-6.74c-.58-1.13-1.2-2.23-1.8-3.35l-1.76-3.38c-1.19-2.23-2.37-4.47-3.52-6.73L123,322.36c-.55-1.14-1.12-2.26-1.71-3.39-2.24-4.54-4.44-9.1-6.55-13.79A76.88,76.88,0,0,0,119.07,320a142.42,142.42,0,0,0,6.45,14c2.4,4.52,5,8.95,7.78,13.24A122.92,122.92,0,0,0,142.35,359.59Z" style="fill:#455a64"></path><path d="M99,315.45c2.37,1.92,4.81,3.64,7.24,5.34s4.89,3.35,7.34,5l7.33,4.94,7.38,5.07a35.22,35.22,0,0,0-5.83-7,59.18,59.18,0,0,0-7.13-5.63,68.54,68.54,0,0,0-7.85-4.49A45.87,45.87,0,0,0,99,315.45Z" style="fill:#455a64"></path><path d="M156.05,355.41a52.75,52.75,0,0,0-4,8.35,74.15,74.15,0,0,0-2.71,8.81,54.27,54.27,0,0,0-1.4,9.18c0,.78,0,1.56,0,2.34s.09,1.58.15,2.36a22.72,22.72,0,0,0,.42,2.33,13.56,13.56,0,0,0,.82,2.21v-1.17a7,7,0,0,1,0-1.12c.11-.76.11-1.49.26-2.23l.36-2.21c.16-.74.31-1.47.44-2.2.63-2.92,1.32-5.84,2-8.77s1.39-5.87,2-8.83S155.67,358.5,156.05,355.41Z" style="fill:#455a64"></path><path d="M163.06,371.86a8.46,8.46,0,0,0-3.88-.58,11.89,11.89,0,0,0-3.76.9,11.15,11.15,0,0,0-3.27,2.08,8.16,8.16,0,0,0-2.25,3.23,32.56,32.56,0,0,0,3.56-1.14c1.09-.42,2.13-.83,3.18-1.27s2.08-.91,3.14-1.41A30.38,30.38,0,0,0,163.06,371.86Z" style="fill:#455a64"></path><path d="M166.88,320.78s-20.68,13.66-11.57,38.79C155.31,359.57,174.68,344.16,166.88,320.78Z" style="fill:#455a64"></path><path d="M199.26,361.15s-22.73-9.9-38.84,11.44C160.42,372.59,183.9,380.44,199.26,361.15Z" style="fill:#455a64"></path><path d="M140.33,266.85s-16.33,18.64-.9,40.47C139.43,307.32,154,287.33,140.33,266.85Z" style="fill:#455a64"></path><path d="M104.87,274.58s-9.29,23,12.46,38.52C117.33,313.1,124.56,289.42,104.87,274.58Z" style="fill:#455a64"></path><path d="M67.64,302.6s11.29,22.07,37.28,15.79C104.92,318.39,91.75,297.43,67.64,302.6Z" style="fill:#455a64"></path><path d="M105.27,336.61s-5,24.27,19.18,35.65C124.45,372.26,127.3,347.66,105.27,336.61Z" style="fill:#455a64"></path><path d="M77.8,363.54S88.12,386.08,114.36,381C114.36,381,102.11,359.43,77.8,363.54Z" style="fill:#455a64"></path></g><g id="freepik--Cactus--inject-7"><path d="M269.29,55.16c-1.43,9.6-10.57,22.44-19.23,22.44s-17.81-12.84-19.24-22.44,5-19.36,8.56-21.28,17.8-1.91,21.36,0S270.71,45.58,269.29,55.16Z" style="fill:#FD6727"></path><path d="M269.29,55.16c-1.43,9.6-10.57,22.44-19.23,22.44s-17.81-12.84-19.24-22.44,5-19.36,8.56-21.28,17.8-1.91,21.36,0S270.71,45.58,269.29,55.16Z" style="opacity:0.2"></path><path d="M242.42,77.61C237.29,81,229.83,75.4,225.1,71.3s-12.69-19.73-10.79-25.4c2.93-8.71,24.36-15.77,28.89-6.2,3.37,7.14-.58,20.48,2.19,26.94S244.14,76.48,242.42,77.61Z" style="fill:#FD6727"></path><path d="M242.42,77.61C237.29,81,229.83,75.4,225.1,71.3s-12.69-19.73-10.79-25.4c2.93-8.71,24.36-15.77,28.89-6.2,3.37,7.14-.58,20.48,2.19,26.94S244.14,76.48,242.42,77.61Z" style="opacity:0.15"></path><path d="M257.69,77.61C262.83,81,270.29,75.4,275,71.3s12.69-19.73,10.78-25.4c-2.93-8.71-24.36-15.77-28.89-6.2-3.37,7.14.58,20.48-2.18,26.94S256,76.48,257.69,77.61Z" style="fill:#FD6727"></path><path d="M257.69,77.61C262.83,81,270.29,75.4,275,71.3s12.69-19.73,10.78-25.4c-2.93-8.71-24.36-15.77-28.89-6.2-3.37,7.14.58,20.48-2.18,26.94S256,76.48,257.69,77.61Z" style="opacity:0.15"></path><path d="M244.75,81.47c-2.34,5.7-17.11,3.4-23.33,2.66s-17.43-5.72-19-11.48c-2.48-8.84,7.14-27.42,16.27-22.05,6.8,4,11,17.26,17,21S245.53,79.57,244.75,81.47Z" style="fill:#FD6727"></path><path d="M244.75,81.47c-2.34,5.7-17.11,3.4-23.33,2.66s-17.43-5.72-19-11.48c-2.48-8.84,7.14-27.42,16.27-22.05,6.8,4,11,17.26,17,21S245.53,79.57,244.75,81.47Z" style="opacity:0.1"></path><path d="M255.25,81.47c2.34,5.7,17.11,3.4,23.33,2.66S296,78.41,297.63,72.65c2.48-8.84-7.14-27.42-16.27-22.05-6.8,4-11,17.26-17,21S254.47,79.57,255.25,81.47Z" style="fill:#FD6727"></path><path d="M255.25,81.47c2.34,5.7,17.11,3.4,23.33,2.66S296,78.41,297.63,72.65c2.48-8.84-7.14-27.42-16.27-22.05-6.8,4-11,17.26-17,21S254.47,79.57,255.25,81.47Z" style="opacity:0.1"></path><path d="M281.12,63.34c-2.3,9.6-17.06,22.44-31.06,22.44S221.3,72.94,219,63.34,227.05,44,232.8,42.06s12.08,1.41,17.26,1.41,11.51-3.32,17.25-1.41S283.42,53.76,281.12,63.34Z" style="fill:#FD6727"></path><path d="M168.36,256.49c-1.31,3.62-2.47,8.88-8.56,8.72s-13.15-11.35-14.3-26-3-32.21-18.09-33.29c0,0-3.29-3.91-10.53-3.57A18,18,0,0,0,105,208.14a22.16,22.16,0,0,0-12.83,15.13c-2.63,11.35-.29,39.59,11.68,63.15,10.85,21.38,27.13,41.28,70.71,28Z" style="fill:#FD6727"></path><path d="M168.36,256.49c-1.31,3.62-2.47,8.88-8.56,8.72s-13.15-11.35-14.3-26-3-32.21-18.09-33.29c0,0-3.29-3.91-10.53-3.57A18,18,0,0,0,105,208.14a22.16,22.16,0,0,0-12.83,15.13c-2.63,11.35-.29,39.59,11.68,63.15,10.85,21.38,27.13,41.28,70.71,28Z" style="fill:#fff;opacity:0.4"></path><path d="M154.16,274.36c-10.86-15.54-12.61-31.62-13.27-47.93-.54-13.37-8-18.84-13.48-20.5,15.12,1.08,16.93,18.66,18.08,33.3s8.23,25.81,14.31,26,7.25-5.1,8.56-8.72l6.24,57.89a91,91,0,0,1-23.27,4.27C172.37,311.39,166.19,291.59,154.16,274.36Z" style="fill:#FD6727;opacity:0.5"></path><path d="M105.14,208.25C98,217.42,99.81,233.1,101.23,244a97.36,97.36,0,0,0,11.24,35.45c5.9,10.58,13.71,20.93,25.09,25.69,11.37,5,24.3,3.14,36-.32l.1.28c-14.4,7-32.56,8.68-45.75-1.92-15.38-12.14-20.52-31.92-26.73-49.57-3.41-11-5-22.84-2.49-34.13a25.19,25.19,0,0,1,4.56-9.77c.52-.61,1.15-1.13,1.71-1.69l.2.22Z" style="fill:#FD6727"></path><path d="M127.46,205.79c6.32,2,7.87,9.74,8.91,15.45,1.07,6,.44,12.1.87,18.09.64,7.9,3.18,15.66,6.07,22.95,2.88,6.77,7.4,14.05,15.53,13.92a27,27,0,0,0,11.3-2.55l.16.25a22.06,22.06,0,0,1-11.38,4.66c-14.39,1.33-19.49-15.82-21.07-27.14-.88-7-2.25-17-3.35-23.9-1.19-6.7-.92-17.48-7.15-21.45l.11-.28Z" style="fill:#FD6727"></path><path d="M142.07,298a15.62,15.62,0,0,1,3.38,2.2,25.53,25.53,0,0,1,2.78,2.72,24,24,0,0,1,2.34,3.12,15.27,15.27,0,0,1,1.73,3.64,15.62,15.62,0,0,1-3.38-2.2,25.16,25.16,0,0,1-5.11-5.84A15.48,15.48,0,0,1,142.07,298Z" style="fill:#FD6727"></path><path d="M145.87,294.14a15.48,15.48,0,0,1,4,.66,25,25,0,0,1,7,3.29,15.32,15.32,0,0,1,3.05,2.63,15.56,15.56,0,0,1-4-.65,24.14,24.14,0,0,1-3.64-1.38,23.62,23.62,0,0,1-3.39-1.92A16,16,0,0,1,145.87,294.14Z" style="fill:#FD6727"></path><path d="M89.43,276.33a15.91,15.91,0,0,1,2.76-2.95,25,25,0,0,1,3.16-2.27,23.06,23.06,0,0,1,3.47-1.76,15.19,15.19,0,0,1,3.89-1.08,15.54,15.54,0,0,1-2.75,3,25.2,25.2,0,0,1-6.64,4A15.6,15.6,0,0,1,89.43,276.33Z" style="fill:#FD6727"></path><path d="M130,222.22a41.85,41.85,0,0,1,4.06,5.52c.63.94,1.17,1.93,1.75,2.89s1.1,2,1.62,3l-2.33-.22c.7-.88,1.41-1.76,2.15-2.61s1.47-1.7,2.27-2.51a42.78,42.78,0,0,1,5-4.63,42.82,42.82,0,0,1-3.33,6c-.6,1-1.28,1.86-1.91,2.79s-1.34,1.82-2,2.7l-1.34,1.72-1-1.94c-.51-1-1-2-1.48-3s-.93-2.05-1.34-3.11A42.74,42.74,0,0,1,130,222.22Z" style="fill:#FD6727"></path><g style="opacity:0.1"><path d="M105.14,208.25C98,217.42,99.81,233.1,101.23,244a97.36,97.36,0,0,0,11.24,35.45c5.9,10.58,13.71,20.93,25.09,25.69,11.37,5,24.3,3.14,36-.32l.1.28c-14.4,7-32.56,8.68-45.75-1.92-15.38-12.14-20.52-31.92-26.73-49.57-3.41-11-5-22.84-2.49-34.13a25.19,25.19,0,0,1,4.56-9.77c.52-.61,1.15-1.13,1.71-1.69l.2.22Z"></path><path d="M127.46,205.79c6.32,2,7.87,9.74,8.91,15.45,1.07,6,.44,12.1.87,18.09.64,7.9,3.18,15.66,6.07,22.95,2.88,6.77,7.4,14.05,15.53,13.92a27,27,0,0,0,11.3-2.55l.16.25a22.06,22.06,0,0,1-11.38,4.66c-14.39,1.33-19.49-15.82-21.07-27.14-.88-7-2.25-17-3.35-23.9-1.19-6.7-.92-17.48-7.15-21.45l.11-.28Z"></path><path d="M142.07,298a15.62,15.62,0,0,1,3.38,2.2,25.53,25.53,0,0,1,2.78,2.72,24,24,0,0,1,2.34,3.12,15.27,15.27,0,0,1,1.73,3.64,15.62,15.62,0,0,1-3.38-2.2,25.16,25.16,0,0,1-5.11-5.84A15.48,15.48,0,0,1,142.07,298Z"></path><path d="M145.87,294.14a15.48,15.48,0,0,1,4,.66,25,25,0,0,1,7,3.29,15.32,15.32,0,0,1,3.05,2.63,15.56,15.56,0,0,1-4-.65,24.14,24.14,0,0,1-3.64-1.38,23.62,23.62,0,0,1-3.39-1.92A16,16,0,0,1,145.87,294.14Z"></path><path d="M89.43,276.33a15.91,15.91,0,0,1,2.76-2.95,25,25,0,0,1,3.16-2.27,23.06,23.06,0,0,1,3.47-1.76,15.19,15.19,0,0,1,3.89-1.08,15.54,15.54,0,0,1-2.75,3,25.2,25.2,0,0,1-6.64,4A15.6,15.6,0,0,1,89.43,276.33Z"></path><path d="M130,222.22a41.85,41.85,0,0,1,4.06,5.52c.63.94,1.17,1.93,1.75,2.89s1.1,2,1.62,3l-2.33-.22c.7-.88,1.41-1.76,2.15-2.61s1.47-1.7,2.27-2.51a42.78,42.78,0,0,1,5-4.63,42.82,42.82,0,0,1-3.33,6c-.6,1-1.28,1.86-1.91,2.79s-1.34,1.82-2,2.7l-1.34,1.72-1-1.94c-.51-1-1-2-1.48-3s-.93-2.05-1.34-3.11A42.74,42.74,0,0,1,130,222.22Z"></path></g><path d="M101.27,215.63c-6.46,3.9-7.2,19.8-.52,21.06,5.46,1,10.25-4.05,12-7.85s1.82-9.57-1.61-12.27C108.19,214.29,103.64,214.19,101.27,215.63Z" style="fill:#fff;opacity:0.30000000000000004"></path><path d="M337.25,178c1.71,3.25,3.51,8.07,9.24,7.1s10.93-12.48,10.07-26.47,2.86-31.74,17-34.78c0,0,1.17-2.63,8.06-3.26s9,3.26,9,3.26a21.18,21.18,0,0,1,14.15,12.59c4,10.38,5.55,37.39-2.62,61.27-7.41,21.66-20.15,42.64-63.13,35.86Z" style="fill:#FD6727"></path><g style="opacity:0.4"><path d="M337.25,178c1.71,3.25,3.51,8.07,9.24,7.1s10.93-12.48,10.07-26.47,2.86-31.74,17-34.78c0,0,1.17-2.63,8.06-3.26s9,3.26,9,3.26a21.18,21.18,0,0,1,14.15,12.59c4,10.38,5.55,37.39-2.62,61.27-7.41,21.66-20.15,42.64-63.13,35.86Z" style="fill:#fff"></path></g><path d="M390.75,123.71c5.13,3.31,7.1,9.72,8.38,15.37,3.66,17.57-1.69,35.15-5.53,52.21-4.47,19.37-16.41,33.07-37.52,32.06a66,66,0,0,1-17.35-3.22l.07-.3a100.78,100.78,0,0,0,17.28,1.11c11.45-.28,22.22-4.94,28.63-14.68,6.4-9.48,9.94-21,11.68-32.28a140.3,140.3,0,0,0,.49-34.5c-.9-5.53-2.1-11.5-6.3-15.53l.17-.24Z" style="fill:#FD6727"></path><path d="M373.65,124c-5.41,4.68-5.8,14.45-6.89,21.13-.51,3.81-1.14,7.66-1.33,11.54-.33,7.82.7,15.75-.92,23.54-1.38,8.06-5.76,17.18-15.19,17.47a20.85,20.85,0,0,1-11.6-2.94l.13-.27a25.67,25.67,0,0,0,11.19.84c7.78-1.11,10.93-8.85,12.73-15.72a89.66,89.66,0,0,0,2.65-17.09c.19-9.77-1.41-19.84,2-29.3,1.28-3.69,3.29-7.85,7.1-9.46l.14.26Z" style="fill:#FD6727"></path><path d="M346.43,171.83a15.62,15.62,0,0,1,3.38,2.2,25.53,25.53,0,0,1,2.78,2.72,24.65,24.65,0,0,1,2.34,3.12,15.46,15.46,0,0,1,1.73,3.64,15.62,15.62,0,0,1-3.38-2.2,24.66,24.66,0,0,1-2.78-2.72,25.57,25.57,0,0,1-2.33-3.12A15.48,15.48,0,0,1,346.43,171.83Z" style="fill:#FD6727"></path><path d="M396.42,135.87a15.54,15.54,0,0,1,2.7-3,25.08,25.08,0,0,1,3.13-2.32,24.62,24.62,0,0,1,3.45-1.82,15.82,15.82,0,0,1,3.87-1.14,15.61,15.61,0,0,1-2.71,3,23.24,23.24,0,0,1-3.13,2.32,24.62,24.62,0,0,1-3.45,1.82A15.87,15.87,0,0,1,396.42,135.87Z" style="fill:#FD6727"></path><path d="M346.42,226.26a15.91,15.91,0,0,1,2.76-2.95,25,25,0,0,1,6.63-4,15.72,15.72,0,0,1,3.89-1.08,15.54,15.54,0,0,1-2.75,2.95,24.71,24.71,0,0,1-3.16,2.27,25.79,25.79,0,0,1-3.48,1.76A16.05,16.05,0,0,1,346.42,226.26Z" style="fill:#FD6727"></path><path d="M383.09,191.46a41.53,41.53,0,0,1,2.6,6.33c.38,1.07.67,2.16,1,3.24s.58,2.17.85,3.27l-2.21-.79c.89-.68,1.79-1.36,2.72-2s1.84-1.3,2.81-1.89a42.39,42.39,0,0,1,6-3.27,41.84,41.84,0,0,1-4.68,5c-.81.79-1.69,1.5-2.53,2.25s-1.74,1.43-2.63,2.13l-1.72,1.34-.48-2.13c-.25-1.09-.5-2.19-.7-3.3s-.42-2.22-.55-3.35A42.79,42.79,0,0,1,383.09,191.46Z" style="fill:#FD6727"></path><g style="opacity:0.1"><path d="M390.75,123.71c5.13,3.31,7.1,9.72,8.38,15.37,3.66,17.57-1.69,35.15-5.53,52.21-4.47,19.37-16.41,33.07-37.52,32.06a66,66,0,0,1-17.35-3.22l.07-.3a100.78,100.78,0,0,0,17.28,1.11c11.45-.28,22.22-4.94,28.63-14.68,6.4-9.48,9.94-21,11.68-32.28a140.3,140.3,0,0,0,.49-34.5c-.9-5.53-2.1-11.5-6.3-15.53l.17-.24Z"></path><path d="M373.65,124c-5.41,4.68-5.8,14.45-6.89,21.13-.51,3.81-1.14,7.66-1.33,11.54-.33,7.82.7,15.75-.92,23.54-1.38,8.06-5.76,17.18-15.19,17.47a20.85,20.85,0,0,1-11.6-2.94l.13-.27a25.67,25.67,0,0,0,11.19.84c7.78-1.11,10.93-8.85,12.73-15.72a89.66,89.66,0,0,0,2.65-17.09c.19-9.77-1.41-19.84,2-29.3,1.28-3.69,3.29-7.85,7.1-9.46l.14.26Z"></path><path d="M346.43,171.83a15.62,15.62,0,0,1,3.38,2.2,25.53,25.53,0,0,1,2.78,2.72,24.65,24.65,0,0,1,2.34,3.12,15.46,15.46,0,0,1,1.73,3.64,15.62,15.62,0,0,1-3.38-2.2,24.66,24.66,0,0,1-2.78-2.72,25.57,25.57,0,0,1-2.33-3.12A15.48,15.48,0,0,1,346.43,171.83Z"></path><path d="M396.42,135.87a15.54,15.54,0,0,1,2.7-3,25.08,25.08,0,0,1,3.13-2.32,24.62,24.62,0,0,1,3.45-1.82,15.82,15.82,0,0,1,3.87-1.14,15.61,15.61,0,0,1-2.71,3,23.24,23.24,0,0,1-3.13,2.32,24.62,24.62,0,0,1-3.45,1.82A15.87,15.87,0,0,1,396.42,135.87Z"></path><path d="M346.42,226.26a15.91,15.91,0,0,1,2.76-2.95,25,25,0,0,1,6.63-4,15.72,15.72,0,0,1,3.89-1.08,15.54,15.54,0,0,1-2.75,2.95,24.71,24.71,0,0,1-3.16,2.27,25.79,25.79,0,0,1-3.48,1.76A16.05,16.05,0,0,1,346.42,226.26Z"></path><path d="M383.09,191.46a41.53,41.53,0,0,1,2.6,6.33c.38,1.07.67,2.16,1,3.24s.58,2.17.85,3.27l-2.21-.79c.89-.68,1.79-1.36,2.72-2s1.84-1.3,2.81-1.89a42.39,42.39,0,0,1,6-3.27,41.84,41.84,0,0,1-4.68,5c-.81.79-1.69,1.5-2.53,2.25s-1.74,1.43-2.63,2.13l-1.72,1.34-.48-2.13c-.25-1.09-.5-2.19-.7-3.3s-.42-2.22-.55-3.35A42.79,42.79,0,0,1,383.09,191.46Z"></path></g><path d="M402.18,197.68c-7.41,21.67-20.14,42.65-63.12,35.87l-.67-20.79.37-.82c26.14,13.88,47.88.47,55.87-20.36s12.06-58.22-.12-66.3a20.66,20.66,0,0,1,10.29,11.14C408.81,146.81,410.35,173.81,402.18,197.68Z" style="fill:#FD6727;opacity:0.5"></path><path d="M366.73,150.37c4.7.94,9.47-6.89,7.56-11.5s-7.63-3.29-9.84-.22S362.5,149.53,366.73,150.37Z" style="fill:#fff;opacity:0.30000000000000004"></path><path d="M182.36,388.39H318.84S360.29,193,327.07,124.6c-19.47-40.11-42.43-38.82-42.43-38.82s-13-12.33-37.83-12.17-36,13.16-36,13.16S183.17,97,173.47,114.23,140.8,211.59,182.36,388.39Z" style="fill:#FD6727"></path><path d="M182.36,388.39H318.84S360.29,193,327.07,124.6c-19.47-40.11-42.43-38.82-42.43-38.82s-13-12.33-37.83-12.17-36,13.16-36,13.16S183.17,97,173.47,114.23,140.8,211.59,182.36,388.39Z" style="fill:#fff;opacity:0.4"></path><path d="M318.84,388.38H182.36s81.06-7.33,105.9-31.9C319.5,325.57,333,176.24,316.55,129.86c-13.47-38-31.91-44.07-31.91-44.07s23-1.3,42.43,38.8C360.3,193,318.84,388.38,318.84,388.38Z" style="fill:#FD6727;opacity:0.5"></path><path d="M210.92,86.86c-14.6,21.31-18,47.38-20.82,72.43A389.47,389.47,0,0,0,188,216.64c2.46,57.33,9.05,114.62,14.49,171.73-9.23-49.54-13.88-101.64-15.55-152.53q-.36-19.18-.1-38.36c.4-31.77-.18-65.08,13.52-94.54a79.88,79.88,0,0,1,10.29-16.26l.24.18Z" style="fill:#FD6727"></path><path d="M284.76,85.69c26.71,31.23,28.87,71,29.23,110.16a1080.38,1080.38,0,0,1-15,192.52c4.54-51.31,9.66-102.53,12.86-153.93.71-12.85,1.4-25.71,1.24-38.58-.45-25.6-3.6-51.38-11.27-75.84a127.15,127.15,0,0,0-12.06-26c-1.66-2.74-3.44-5.42-5.22-8.11l.24-.18Z" style="fill:#FD6727"></path><path d="M266.44,79.72c8.09,4.1,14.05,11.84,17.42,20.16a106.7,106.7,0,0,1,3.71,12.93l3.23,13a164.9,164.9,0,0,1,4,26.43,198.25,198.25,0,0,1,0,26.7h-.3c-1.82-12.73-2.93-26.83-4-39.66-.95-8.76-1.3-17.71-3.87-26.19a95.14,95.14,0,0,0-11.56-23.42,55.69,55.69,0,0,0-8.8-9.68l.16-.25Z" style="fill:#FD6727"></path><path d="M218.65,138a47.43,47.43,0,0,1-.48,12.43c-.41,2-1.08,4-1.35,6.1-.6,4.12.17,8.3,0,12.44a70.54,70.54,0,0,1-2.13,18.54h-.3a59.9,59.9,0,0,1-.93-12.49A75.05,75.05,0,0,1,215,162.62a37,37,0,0,0,.83-6.17c0-4.16-.46-8.37.63-12.47a32.3,32.3,0,0,1,1.87-6l.3.05Z" style="fill:#FD6727"></path><path d="M283.74,87.25a41.66,41.66,0,0,1,1.42,6.7c.19,1.11.27,2.24.41,3.36s.18,2.25.24,3.37l-2-1.17c1-.51,2-1,3-1.49s2-.94,3.1-1.34a43,43,0,0,1,6.5-2.15,41.17,41.17,0,0,1-5.5,4.08c-.94.63-1.93,1.17-2.89,1.76s-2,1.09-3,1.62l-1.93,1-.1-2.18c0-1.13-.09-2.25-.09-3.38s0-2.25.06-3.39A42.72,42.72,0,0,1,283.74,87.25Z" style="fill:#FD6727"></path><path d="M172.61,182.14a42.83,42.83,0,0,1,6.83-.53c1.13,0,2.25,0,3.38,0s2.25.12,3.38.2l-1.43,1.86c-.37-1.06-.74-2.13-1.07-3.2s-.67-2.16-.93-3.26a42.55,42.55,0,0,1-1.27-6.73,43,43,0,0,1,3.32,6c.5,1,.9,2.07,1.36,3.1s.83,2.1,1.21,3.16l.75,2-2.17-.19c-1.12-.1-2.24-.21-3.36-.36s-2.24-.28-3.35-.5A43.86,43.86,0,0,1,172.61,182.14Z" style="fill:#FD6727"></path><path d="M198.39,78.1a42,42,0,0,1,6.32,2.62c1,.48,2,1,3,1.57s2,1.12,2.92,1.71l-2.11,1c.14-1.12.3-2.23.49-3.34s.38-2.23.65-3.33a42.33,42.33,0,0,1,1.91-6.57,41.38,41.38,0,0,1,.24,6.84c0,1.13-.12,2.25-.18,3.38s-.21,2.24-.35,3.36L211,87.52l-1.85-1.15c-.95-.6-1.9-1.2-2.83-1.84s-1.87-1.27-2.76-2A42.65,42.65,0,0,1,198.39,78.1Z" style="fill:#FD6727"></path><path d="M205.37,114.94a16,16,0,0,1,3.5,2,25.68,25.68,0,0,1,2.92,2.57,23.86,23.86,0,0,1,2.5,3,15.12,15.12,0,0,1,1.93,3.55,15.7,15.7,0,0,1-3.49-2,24,24,0,0,1-2.93-2.57,25.71,25.71,0,0,1-2.5-3A16,16,0,0,1,205.37,114.94Z" style="fill:#FD6727"></path><path d="M320.25,165a15.61,15.61,0,0,1,2.71-3,23.53,23.53,0,0,1,3.13-2.33,24,24,0,0,1,3.44-1.81,15.11,15.11,0,0,1,3.87-1.14,15.25,15.25,0,0,1-2.7,3,25.84,25.84,0,0,1-3.13,2.32,24.62,24.62,0,0,1-3.45,1.81A15.83,15.83,0,0,1,320.25,165Z" style="fill:#FD6727"></path><path d="M286.62,308.77A16,16,0,0,1,290,311a25.53,25.53,0,0,1,2.78,2.72,24,24,0,0,1,2.34,3.12,15.27,15.27,0,0,1,1.73,3.64,15.62,15.62,0,0,1-3.38-2.2,25.48,25.48,0,0,1-5.11-5.85A15.3,15.3,0,0,1,286.62,308.77Z" style="fill:#FD6727"></path><path d="M290.42,304.91a15.93,15.93,0,0,1,4,.65,25.72,25.72,0,0,1,7,3.29,15.37,15.37,0,0,1,3.05,2.64,15.56,15.56,0,0,1-4-.65,25.27,25.27,0,0,1-3.64-1.38,23.62,23.62,0,0,1-3.39-1.92A16,16,0,0,1,290.42,304.91Z" style="fill:#FD6727"></path><path d="M180,355.14a16.08,16.08,0,0,1-3.8,1.37,25.37,25.37,0,0,1-3.85.57,24.19,24.19,0,0,1-3.9,0,15.72,15.72,0,0,1-3.95-.82,15.65,15.65,0,0,1,3.8-1.37,24,24,0,0,1,3.85-.57,25.4,25.4,0,0,1,3.9,0A15.78,15.78,0,0,1,180,355.14Z" style="fill:#FD6727"></path><path d="M180.76,360.51a16.23,16.23,0,0,1-2.93,2.77,25.53,25.53,0,0,1-6.87,3.63,15.66,15.66,0,0,1-4,.84,16,16,0,0,1,2.93-2.78,25.18,25.18,0,0,1,3.29-2.07,26.49,26.49,0,0,1,3.58-1.55A16.11,16.11,0,0,1,180.76,360.51Z" style="fill:#FD6727"></path><path d="M165.09,274.89a15.86,15.86,0,0,1,2.75-2.95,26,26,0,0,1,6.64-4,16,16,0,0,1,3.89-1.08,15.93,15.93,0,0,1-2.75,3,25.64,25.64,0,0,1-6.64,4A16,16,0,0,1,165.09,274.89Z" style="fill:#FD6727"></path><path d="M333.1,238.94a16.07,16.07,0,0,1,4,.34A25.92,25.92,0,0,1,344.4,242a15.78,15.78,0,0,1,3.25,2.39,16,16,0,0,1-4-.33,26.3,26.3,0,0,1-3.74-1.08,26.94,26.94,0,0,1-3.54-1.64A16.16,16.16,0,0,1,333.1,238.94Z" style="fill:#FD6727"></path><path d="M307.31,252.52a41.53,41.53,0,0,1,2.6,6.33c.38,1.06.67,2.15,1,3.23s.58,2.18.85,3.27l-2.21-.78c.89-.68,1.79-1.36,2.72-2s1.84-1.29,2.81-1.88a42.45,42.45,0,0,1,6-3.28,41.19,41.19,0,0,1-4.68,5c-.81.79-1.68,1.5-2.53,2.25s-1.74,1.43-2.63,2.12l-1.72,1.35-.48-2.13c-.25-1.1-.5-2.2-.7-3.31s-.41-2.21-.55-3.34A42.79,42.79,0,0,1,307.31,252.52Z" style="fill:#FD6727"></path><path d="M210,331.32a42.24,42.24,0,0,1,5.81,3.61c.94.64,1.81,1.36,2.71,2s1.74,1.43,2.6,2.16l-2.25.66c.33-1.08.66-2.16,1-3.22s.74-2.13,1.18-3.18a43.57,43.57,0,0,1,3-6.17,42.16,42.16,0,0,1-.87,6.79c-.2,1.12-.5,2.2-.74,3.31s-.57,2.18-.89,3.26l-.61,2.09-1.64-1.44c-.84-.74-1.68-1.49-2.5-2.27s-1.63-1.56-2.4-2.39A44.71,44.71,0,0,1,210,331.32Z" style="fill:#FD6727"></path><path d="M213.09,231q2.07,19.73,2.72,39.52c.15,6.6.09,13.21.42,19.81.62,13.19,2.72,26.26,4.15,39.37,2.55,19.6,4.34,39.28,8.49,58.64l-.29.09c-1.06-3.13-2.24-6.26-3.11-9.45-5.24-19.2-7.34-39.08-8.64-58.89-.55-9.9-.75-19.82-1.58-29.7-.48-5.55-1.41-14.14-1.93-19.74-.52-6.59-.74-13.2-.85-19.81s0-13.22.32-19.84Z" style="fill:#FD6727"></path><g style="opacity:0.1"><path d="M210.92,86.86c-14.6,21.31-18,47.38-20.82,72.43A389.47,389.47,0,0,0,188,216.64c2.46,57.33,9.05,114.62,14.49,171.73-9.23-49.54-13.88-101.64-15.55-152.53q-.36-19.18-.1-38.36c.4-31.77-.18-65.08,13.52-94.54a79.88,79.88,0,0,1,10.29-16.26l.24.18Z"></path><path d="M284.76,85.69c26.71,31.23,28.87,71,29.23,110.16a1080.38,1080.38,0,0,1-15,192.52c4.54-51.31,9.66-102.53,12.86-153.93.71-12.85,1.4-25.71,1.24-38.58-.45-25.6-3.6-51.38-11.27-75.84a127.15,127.15,0,0,0-12.06-26c-1.66-2.74-3.44-5.42-5.22-8.11l.24-.18Z"></path><path d="M266.44,79.72c8.09,4.1,14.05,11.84,17.42,20.16a106.7,106.7,0,0,1,3.71,12.93l3.23,13a164.9,164.9,0,0,1,4,26.43,198.25,198.25,0,0,1,0,26.7h-.3c-1.82-12.73-2.93-26.83-4-39.66-.95-8.76-1.3-17.71-3.87-26.19a95.14,95.14,0,0,0-11.56-23.42,55.69,55.69,0,0,0-8.8-9.68l.16-.25Z"></path><path d="M218.65,138a47.43,47.43,0,0,1-.48,12.43c-.41,2-1.08,4-1.35,6.1-.6,4.12.17,8.3,0,12.44a70.54,70.54,0,0,1-2.13,18.54h-.3a59.9,59.9,0,0,1-.93-12.49A75.05,75.05,0,0,1,215,162.62a37,37,0,0,0,.83-6.17c0-4.16-.46-8.37.63-12.47a32.3,32.3,0,0,1,1.87-6l.3.05Z"></path><path d="M283.74,87.25a41.66,41.66,0,0,1,1.42,6.7c.19,1.11.27,2.24.41,3.36s.18,2.25.24,3.37l-2-1.17c1-.51,2-1,3-1.49s2-.94,3.1-1.34a43,43,0,0,1,6.5-2.15,41.17,41.17,0,0,1-5.5,4.08c-.94.63-1.93,1.17-2.89,1.76s-2,1.09-3,1.62l-1.93,1-.1-2.18c0-1.13-.09-2.25-.09-3.38s0-2.25.06-3.39A42.72,42.72,0,0,1,283.74,87.25Z"></path><path d="M172.61,182.14a42.83,42.83,0,0,1,6.83-.53c1.13,0,2.25,0,3.38,0s2.25.12,3.38.2l-1.43,1.86c-.37-1.06-.74-2.13-1.07-3.2s-.67-2.16-.93-3.26a42.55,42.55,0,0,1-1.27-6.73,43,43,0,0,1,3.32,6c.5,1,.9,2.07,1.36,3.1s.83,2.1,1.21,3.16l.75,2-2.17-.19c-1.12-.1-2.24-.21-3.36-.36s-2.24-.28-3.35-.5A43.86,43.86,0,0,1,172.61,182.14Z"></path><path d="M198.39,78.1a42,42,0,0,1,6.32,2.62c1,.48,2,1,3,1.57s2,1.12,2.92,1.71l-2.11,1c.14-1.12.3-2.23.49-3.34s.38-2.23.65-3.33a42.33,42.33,0,0,1,1.91-6.57,41.38,41.38,0,0,1,.24,6.84c0,1.13-.12,2.25-.18,3.38s-.21,2.24-.35,3.36L211,87.52l-1.85-1.15c-.95-.6-1.9-1.2-2.83-1.84s-1.87-1.27-2.76-2A42.65,42.65,0,0,1,198.39,78.1Z"></path><path d="M205.37,114.94a16,16,0,0,1,3.5,2,25.68,25.68,0,0,1,2.92,2.57,23.86,23.86,0,0,1,2.5,3,15.12,15.12,0,0,1,1.93,3.55,15.7,15.7,0,0,1-3.49-2,24,24,0,0,1-2.93-2.57,25.71,25.71,0,0,1-2.5-3A16,16,0,0,1,205.37,114.94Z"></path><path d="M320.25,165a15.61,15.61,0,0,1,2.71-3,23.53,23.53,0,0,1,3.13-2.33,24,24,0,0,1,3.44-1.81,15.11,15.11,0,0,1,3.87-1.14,15.25,15.25,0,0,1-2.7,3,25.84,25.84,0,0,1-3.13,2.32,24.62,24.62,0,0,1-3.45,1.81A15.83,15.83,0,0,1,320.25,165Z"></path><path d="M286.62,308.77A16,16,0,0,1,290,311a25.53,25.53,0,0,1,2.78,2.72,24,24,0,0,1,2.34,3.12,15.27,15.27,0,0,1,1.73,3.64,15.62,15.62,0,0,1-3.38-2.2,25.48,25.48,0,0,1-5.11-5.85A15.3,15.3,0,0,1,286.62,308.77Z"></path><path d="M290.42,304.91a15.93,15.93,0,0,1,4,.65,25.72,25.72,0,0,1,7,3.29,15.37,15.37,0,0,1,3.05,2.64,15.56,15.56,0,0,1-4-.65,25.27,25.27,0,0,1-3.64-1.38,23.62,23.62,0,0,1-3.39-1.92A16,16,0,0,1,290.42,304.91Z"></path><path d="M180,355.14a16.08,16.08,0,0,1-3.8,1.37,25.37,25.37,0,0,1-3.85.57,24.19,24.19,0,0,1-3.9,0,15.72,15.72,0,0,1-3.95-.82,15.65,15.65,0,0,1,3.8-1.37,24,24,0,0,1,3.85-.57,25.4,25.4,0,0,1,3.9,0A15.78,15.78,0,0,1,180,355.14Z"></path><path d="M180.76,360.51a16.23,16.23,0,0,1-2.93,2.77,25.53,25.53,0,0,1-6.87,3.63,15.66,15.66,0,0,1-4,.84,16,16,0,0,1,2.93-2.78,25.18,25.18,0,0,1,3.29-2.07,26.49,26.49,0,0,1,3.58-1.55A16.11,16.11,0,0,1,180.76,360.51Z"></path><path d="M165.09,274.89a15.86,15.86,0,0,1,2.75-2.95,26,26,0,0,1,6.64-4,16,16,0,0,1,3.89-1.08,15.93,15.93,0,0,1-2.75,3,25.64,25.64,0,0,1-6.64,4A16,16,0,0,1,165.09,274.89Z"></path><path d="M333.1,238.94a16.07,16.07,0,0,1,4,.34A25.92,25.92,0,0,1,344.4,242a15.78,15.78,0,0,1,3.25,2.39,16,16,0,0,1-4-.33,26.3,26.3,0,0,1-3.74-1.08,26.94,26.94,0,0,1-3.54-1.64A16.16,16.16,0,0,1,333.1,238.94Z"></path><path d="M307.31,252.52a41.53,41.53,0,0,1,2.6,6.33c.38,1.06.67,2.15,1,3.23s.58,2.18.85,3.27l-2.21-.78c.89-.68,1.79-1.36,2.72-2s1.84-1.29,2.81-1.88a42.45,42.45,0,0,1,6-3.28,41.19,41.19,0,0,1-4.68,5c-.81.79-1.68,1.5-2.53,2.25s-1.74,1.43-2.63,2.12l-1.72,1.35-.48-2.13c-.25-1.1-.5-2.2-.7-3.31s-.41-2.21-.55-3.34A42.79,42.79,0,0,1,307.31,252.52Z"></path><path d="M210,331.32a42.24,42.24,0,0,1,5.81,3.61c.94.64,1.81,1.36,2.71,2s1.74,1.43,2.6,2.16l-2.25.66c.33-1.08.66-2.16,1-3.22s.74-2.13,1.18-3.18a43.57,43.57,0,0,1,3-6.17,42.16,42.16,0,0,1-.87,6.79c-.2,1.12-.5,2.2-.74,3.31s-.57,2.18-.89,3.26l-.61,2.09-1.64-1.44c-.84-.74-1.68-1.49-2.5-2.27s-1.63-1.56-2.4-2.39A44.71,44.71,0,0,1,210,331.32Z"></path><path d="M213.09,231q2.07,19.73,2.72,39.52c.15,6.6.09,13.21.42,19.81.62,13.19,2.72,26.26,4.15,39.37,2.55,19.6,4.34,39.28,8.49,58.64l-.29.09c-1.06-3.13-2.24-6.26-3.11-9.45-5.24-19.2-7.34-39.08-8.64-58.89-.55-9.9-.75-19.82-1.58-29.7-.48-5.55-1.41-14.14-1.93-19.74-.52-6.59-.74-13.2-.85-19.81s0-13.22.32-19.84Z"></path></g><path d="M205.89,199.26c-6.91,0-12.13,5.59-11.93,13a11.52,11.52,0,0,0,11.93,11.68c6.94,0,11.88-5.88,11.88-12.34S213,199.26,205.89,199.26Z" style="fill:#263238"></path><path d="M217.7,210.31c0-.26-.58.22-.63.49-1.06,6.69-2.9,14.18-9.34,15.24-.2,0-.24.37,0,.38C215.26,226.79,218.29,216.12,217.7,210.31Z" style="fill:#263238"></path><path d="M291.64,199.26c6.9,0,12.13,5.59,11.92,13a11.51,11.51,0,0,1-11.92,11.68c-6.95,0-11.89-5.88-11.89-12.34S284.48,199.26,291.64,199.26Z" style="fill:#263238"></path><path d="M279.83,210.31c0-.26.58.22.62.49,1.06,6.69,2.9,14.18,9.34,15.24.2,0,.25.37,0,.38C282.26,226.79,279.24,216.12,279.83,210.31Z" style="fill:#263238"></path><path d="M235.58,207.19A56.66,56.66,0,0,1,264.42,206c-9.68-.1-19.17.47-28.84,1.23Z" style="fill:#FD6727"></path><path d="M242.62,201.86a17.65,17.65,0,0,1,13.26,1.57,95.73,95.73,0,0,1-13.26-1.57Z" style="fill:#FD6727"></path><path d="M227.47,212.89c-1.44,2.05-2.48,5.37-1.54,7.69,2.38,3.83,11.3-.77,14.49-2.26,2.23-1,5.22-2.81,7.55-3.56,1.29-.36,2.48.37,3.53.84,4.24,2.09,8.89,4.87,13.42,6.05,8.33,1.7,8.36-2.92,4.44-8.76,6.58,6.22,4.41,12.31-4.91,11-5.76-.94-10.55-4.18-15.8-6.28-6,2.39-12.85,7-20,6.31-6.3-.76-4.58-8-1.14-11.07Z" style="fill:#263238"></path><g style="opacity:0.30000000000000004"><path d="M185.32,111.89c-8.15,4.93-9.08,25-.65,26.59,6.9,1.3,12.94-5.11,15.08-9.91s2.3-12.08-2-15.49C194.06,110.2,188.31,110.08,185.32,111.89Z" style="fill:#fff"></path><path d="M210.47,103.12c-.39-3.36-6.68-4.86-9.36-2.58s-1,7.3,1.55,8.12S210.83,106.14,210.47,103.12Z" style="fill:#fff"></path></g><polygon points="170.06 365.58 173.97 392.63 185.93 475.14 314.07 475.14 326.03 392.63 329.94 365.58 170.06 365.58" style="fill:#FD6727"></polygon><polygon points="170.06 365.58 173.97 392.63 185.93 475.14 314.07 475.14 326.03 392.63 329.94 365.58 170.06 365.58" style="opacity:0.4"></polygon><polygon points="170.06 365.58 173.97 392.63 326.88 386.73 329.94 365.58 170.06 365.58" style="opacity:0.1"></polygon><polygon points="325.38 397.09 324.22 405.12 175.78 405.12 174.61 397.09 325.38 397.09" style="fill:#FD6727"></polygon><polygon points="317.31 452.83 316.14 460.86 183.87 460.86 182.7 452.83 317.31 452.83" style="fill:#FD6727"></polygon><path d="M323.16,412.41l-28.27,16.43,23.88,13.88L320,434l-8.88-5.16,10.51-6.1Z" style="fill:#37474f"></path><polygon points="321.66 422.74 320.03 434 311.15 428.84 321.66 422.74" style="fill:#FD6727"></polygon><path d="M250.12,412.3l-28.46,16.54,28.46,16.54,28.47-16.54Zm-12.2,16.54,12.2-7.08,12.2,7.08-12.2,7.09Z" style="fill:#37474f"></path><polygon points="262.32 428.85 250.12 435.93 237.92 428.85 250.12 421.76 262.32 428.85" style="fill:#FD6727"></polygon><path d="M176.89,412.3l-.06,0,1.48,10.25,10.78,6.25L180,434.13l1.27,8.72,24.11-14Z" style="fill:#37474f"></path><polygon points="189.09 428.84 179.98 434.13 178.31 422.59 189.09 428.84" style="fill:#FD6727"></polygon><polygon points="225.71 416.06 213.5 423.15 201.31 416.06 213.5 408.97 225.71 416.06" style="fill:#FD6727"></polygon><polygon points="298.94 416.06 286.74 423.15 274.54 416.06 286.74 408.97 298.94 416.06" style="fill:#FD6727"></polygon><polygon points="225.71 441.63 213.5 448.72 201.31 441.63 213.5 434.54 225.71 441.63" style="fill:#FD6727"></polygon><polygon points="298.94 441.63 286.74 448.72 274.54 441.63 286.74 434.54 298.94 441.63" style="fill:#FD6727"></polygon><rect x="162.19" y="353.19" width="175.63" height="29.61" transform="translate(500 735.99) rotate(180)" style="fill:#FD6727"></rect><rect x="162.19" y="353.19" width="175.63" height="29.61" transform="translate(500 735.99) rotate(180)" style="opacity:0.4"></rect></g><g id="freepik--Floor--inject-7"><path d="M66.66,475.14c117.46-.61,249.22-.61,366.68,0-117.46.62-249.22.62-366.68,0Z" style="fill:#263238"></path></g><g id="freepik--Hearts--inject-7"><path d="M145.18,183.42s-26.28-10.16-37.69-22.06S94.78,135.87,99.18,133c7.09-4.66,21.88,17.78,21.88,17.78s-11.73-32.74,2.18-35.56c11.45-2.32,13.16,35.73,17.13,51.34C142.78,176.05,145.18,183.42,145.18,183.42Z" style="fill:#FD6727"></path><path d="M149.62,119.06s-8.2-15.81-9.26-27.86S143,71.38,146.8,71.6c5.29.3,4,17.69,4,17.69S157.38,69.1,164,72.66c7.56,4.07-4.45,23.79-9.36,34.54C151.63,113.75,149.62,119.06,149.62,119.06Z" style="fill:#FD6727"></path><path d="M341.76,123.09s8.83-8.29,12.85-14.78c4.2-6.8,3.65-11.35,1.33-12.1-3.33-1.07-8.47,9-8.47,9s1.57-12.78-3-11.69c-5.27,1.25-5.8,12.53-4,21.52C341.38,119.44,341.76,123.09,341.76,123.09Z" style="fill:#FD6727"></path></g></svg>
