<svg width="150" height="150" viewBox="0 0 150 150" fill="none" xmlns="http://www.w3.org/2000/svg">
<rect x="20" y="23" width="111" height="105" fill="#C48CE1"/>
<path d="M50.518 88.1951H100.331C95.6105 94.1779 86.2282 98.255 75.4245 98.255C64.6208 98.255 55.2384 94.1779 50.518 88.1951L50.518 88.1951Z" fill="black"/>
<path fill-rule="evenodd" clip-rule="evenodd" d="M62.3272 89.8717C62.3253 90.0111 62.3244 90.1508 62.3244 90.2909C62.3244 101.171 68.0169 109.991 75.039 109.991C82.061 109.991 87.7536 101.171 87.7536 90.2909C87.7536 90.1508 87.7526 90.0111 87.7507 89.8717H62.3272Z" fill="#F34D4D"/>
<path d="M97 75C105.837 75 113 67.8366 113 59C113 50.1634 105.837 43 97 43C88.1634 43 81 50.1634 81 59C81 67.8366 88.1634 75 97 75Z" fill="white"/>
<path d="M98.2605 57.9876C98.6045 58.5922 99.2546 59 100 59C101.105 59 102 58.1046 102 57C102 56.2546 101.592 55.6045 100.988 55.2605C101.46 55.0918 101.969 55 102.5 55C104.985 55 107 57.0147 107 59.5C107 61.9853 104.985 64 102.5 64C100.015 64 98 61.9853 98 59.5C98 58.9694 98.0918 58.4603 98.2605 57.9876Z" fill="black"/>
<path d="M53 77C62.9411 77 71 68.9411 71 59C71 49.0589 62.9411 41 53 41C43.0589 41 35 49.0589 35 59C35 68.9411 43.0589 77 53 77Z" fill="white"/>
<path d="M41.2149 64.7102C41.7074 66.0468 42.9924 67 44.5 67C46.433 67 48 65.433 48 63.5C48 61.6482 46.5619 60.1323 44.7416 60.0082C45.8467 59.3671 47.1305 59 48.5 59C52.6421 59 56 62.3579 56 66.5C56 70.6421 52.6421 74 48.5 74C44.3579 74 41 70.6421 41 66.5C41 65.8832 41.0745 65.2838 41.2149 64.7102Z" fill="black"/>
</svg>
